<svg width="255" height="255" viewBox="0 0 255 255" fill="none" xmlns="http://www.w3.org/2000/svg">
<mask id="mask0_1_3" style="mask-type:luminance" maskUnits="userSpaceOnUse" x="0" y="0" width="255" height="255">
<path d="M154.041 2.93005C222.585 17.8422 266.062 85.498 251.149 154.042C236.237 222.586 168.581 266.063 100.038 251.151C31.4942 236.238 -11.9828 168.583 2.93007 100.039C17.8422 31.4946 85.4972 -11.9828 154.041 2.93005Z" fill="white"/>
</mask>
<g mask="url(#mask0_1_3)">
<path fill-rule="evenodd" clip-rule="evenodd" d="M155.79 11.513C95.2666 15.4218 55.4542 49.2217 40.8875 95.0462C29.6246 130.477 33.1762 173.948 55.6557 211.031C61.3253 220.384 69.1153 232.658 80.9804 244.336C67.2641 239.518 50.0858 228.125 40.6373 218.926C7.15412 186.325 -4.81941 137.456 12.4024 88.4267C34.3818 25.8521 92.4233 -10.745 155.79 11.513Z" fill="#E31E24"/>
<path fill-rule="evenodd" clip-rule="evenodd" d="M125.084 53.4578C90.9851 163.47 195.322 246.282 301.898 203.251C260.01 252.695 193.84 250.548 145.014 209.184C96.188 167.819 83.1963 102.902 125.084 53.4578Z" fill="#E31E24"/>
<path fill-rule="evenodd" clip-rule="evenodd" d="M130.263 74.3858C137.908 182.517 257.689 219.535 336.478 145.412C316.616 203.078 257.846 223.782 200.901 204.169C143.957 184.555 110.401 132.051 130.263 74.3858Z" fill="#E31E24"/>
<path fill-rule="evenodd" clip-rule="evenodd" d="M141.68 87.7933C182.639 180.799 300.058 175.568 346.135 85.2266C346.853 142.401 301.54 179.267 245.081 179.976C188.622 180.684 142.397 144.967 141.68 87.7933Z" fill="#E31E24"/>
<path fill-rule="evenodd" clip-rule="evenodd" d="M146.003 20.1726C39.5416 64.1217 43.055 198.329 144.196 252.925C127.394 255.117 105.778 253.323 95.4121 250.054C79.0206 238.361 65.0043 218.232 54.8419 200.352C44.2104 181.647 38.5623 159.104 38.8235 134.891C39.5132 70.9029 81.2045 19.4738 146.003 20.1726Z" fill="#E31E24"/>
<path fill-rule="evenodd" clip-rule="evenodd" d="M130.838 35.6721C54.1578 121.612 114.717 240.256 229.54 245.336C170.91 272.937 111.599 243.522 84.3426 185.625C57.0866 127.728 72.2077 63.2732 130.838 35.6721Z" fill="#E31E24"/>
</g>
</svg>
