<?xml version="1.0" encoding="UTF-8"?>
<!DOCTYPE svg PUBLIC "-//W3C//DTD SVG 1.1//EN" "http://www.w3.org/Graphics/SVG/1.1/DTD/svg11.dtd">
<!-- Creator: CorelDRAW 2020 (64-Bit) -->
<svg xmlns="http://www.w3.org/2000/svg" xml:space="preserve" width="210mm" height="297mm" version="1.1" style="shape-rendering:geometricPrecision; text-rendering:geometricPrecision; image-rendering:optimizeQuality; fill-rule:evenodd; clip-rule:evenodd"
viewBox="0 0 21000 29700"
 xmlns:xlink="http://www.w3.org/1999/xlink"
 xmlns:xodm="http://www.corel.com/coreldraw/odm/2003">
 <defs>
  <style type="text/css">
   <![CDATA[
    .fil1 {fill:none}
    .fil0 {fill:#E31E24}
    .fil2 {fill:#2B2A29;fill-rule:nonzero}
   ]]>
  </style>
    <clipPath id="id0">
     <path d="M6189.73 16107.5c1075.26,233.93 1757.3,1295.26 1523.36,2370.53 -233.94,1075.27 -1295.27,1757.3 -2370.53,1523.37 -1075.26,-233.94 -1757.3,-1295.26 -1523.36,-2370.53 233.94,-1075.27 1295.26,-1757.32 2370.53,-1523.37z"/>
    </clipPath>
 </defs>
 <g id="Слой_x0020_1">
  <metadata id="CorelCorpID_0Corel-Layer"/>
  <g id="_2877254656720">
   <g>
   </g>
   <g style="clip-path:url(#id0)">
    <g id="_2877254657872">
     <path class="fil0" d="M6217.15 16242.14c-949.44,61.32 -1573.99,591.55 -1802.5,1310.41 -176.68,555.82 -120.97,1237.75 231.68,1819.49 88.93,146.72 211.14,339.27 397.27,522.46 -215.17,-75.58 -484.65,-254.3 -632.87,-398.61 -525.26,-511.43 -713.1,-1278.06 -442.93,-2047.18 344.79,-981.63 1255.31,-1555.74 2249.35,-1206.57z"/>
     <path class="fil0" d="M5735.47 16900.14c-534.92,1725.79 1101.83,3024.89 2773.72,2349.85 -657.11,775.64 -1695.13,741.96 -2461.08,93.06 -765.94,-648.89 -969.75,-1667.27 -312.64,-2442.91z"/>
     <path class="fil0" d="M5816.71 17228.44c119.93,1696.28 1998.97,2276.99 3234.95,1114.22 -311.58,904.61 -1233.52,1229.4 -2126.83,921.72 -893.31,-307.68 -1419.69,-1131.32 -1108.12,-2035.94z"/>
     <path class="fil0" d="M5995.81 17438.77c642.54,1459.01 2484.52,1376.95 3207.35,-40.26 11.26,896.9 -699.58,1475.23 -1585.27,1486.35 -885.69,11.12 -1610.83,-549.19 -1622.08,-1446.09z"/>
     <path class="fil0" d="M6063.62 16377.99c-1670.08,689.44 -1614.97,2794.78 -28.33,3651.24 -263.58,34.4 -602.68,6.26 -765.3,-45.02 -257.13,-183.45 -477.01,-499.21 -636.43,-779.7 -166.78,-293.43 -255.38,-647.07 -251.29,-1026.9 10.83,-1003.8 664.84,-1810.58 1681.35,-1799.62z"/>
     <path class="fil0" d="M5825.72 16621.13c-1202.89,1348.16 -252.88,3209.37 1548.38,3289.05 -919.74,432.99 -1850.18,-28.44 -2277.75,-936.69 -427.58,-908.25 -190.37,-1919.37 729.37,-2352.36z"/>
    </g>
   </g>
   <path class="fil1" d="M6189.73 16107.5c1075.26,233.93 1757.3,1295.26 1523.36,2370.53 -233.94,1075.27 -1295.27,1757.3 -2370.53,1523.37 -1075.26,-233.94 -1757.3,-1295.26 -1523.36,-2370.53 233.94,-1075.27 1295.26,-1757.32 2370.53,-1523.37z"/>
   <path class="fil2" d="M8436.16 17250.32c-68.51,0 -123.06,-20.56 -163.68,-61.65 -41.1,-40.61 -61.66,-95.17 -61.66,-163.69l0 -145.33c0,-68.5 20.56,-123.31 61.66,-164.41 40.62,-40.62 95.17,-60.92 163.68,-60.92l265.7 0c68.51,0 123.32,20.3 164.41,60.92 40.61,41.1 60.92,95.91 60.92,164.41l0 67.53 -218.72 0 0 -33.76c0,-17.12 -3.68,-29.36 -11.01,-36.71 -7.84,-7.33 -20.06,-11 -36.71,-11l-183.49 0c-16.63,0 -28.62,3.67 -35.97,11 -7.82,7.35 -11.74,19.59 -11.74,36.71l0 83.68c0,17.12 3.92,29.36 11.74,36.69 7.35,7.35 19.34,11.01 35.97,11.01l224.6 0c68.51,0 123.32,20.31 164.41,60.92 40.61,41.11 60.92,95.91 60.92,164.43l0 149.73c0,68.5 -20.31,123.06 -60.92,163.67 -41.09,41.11 -95.9,61.66 -164.41,61.66l-265.7 0c-68.51,0 -123.06,-20.55 -163.68,-61.66 -41.1,-40.61 -61.66,-95.17 -61.66,-163.67l0 -70.47 218.73 0 0 36.69c0,17.14 3.92,29.37 11.74,36.71 7.35,7.34 19.34,11.01 35.97,11.01l183.49 0c16.65,0 28.87,-3.67 36.71,-11.01 7.33,-7.34 11.01,-19.57 11.01,-36.71l0 -88.07c0,-17.12 -3.68,-29.36 -11.01,-36.69 -7.84,-7.35 -20.06,-11.02 -36.71,-11.02l-224.59 0zm877.85 34.49l0 360.4 -218.72 0 0 -990.89 479.29 0c68.52,0 123.32,20.3 164.43,60.92 40.6,41.1 60.91,95.91 60.91,164.41l0 179.83c0,68.52 -20.31,123.07 -60.91,163.69 -41.11,41.1 -95.91,61.64 -164.43,61.64l-260.57 0zm0 -205.51l218.74 0c17.13,0 29.61,-3.66 37.43,-11.01 7.34,-7.33 11.01,-19.57 11.01,-36.7l0 -117.44c0,-17.13 -3.67,-29.35 -11.01,-36.7 -7.82,-7.33 -20.3,-11.01 -37.43,-11.01l-218.74 0 0 212.86zm647.39 -424.98l660.6 0 0 211.39 -441.87 0 0 179.09 349.39 0 0 205.52 -349.39 0 0 183.5 441.87 0 0 211.39 -660.6 0 0 -990.89zm821.34 0l218.72 0 0 408.1 286.26 -408.1 264.98 0 -313.42 413.24 328.84 577.65 -248.83 0 -222.41 -388.28 -95.42 126.24 0 262.04 -218.72 0 0 -990.89zm1112.72 212.12l-264.96 0 0 -212.12 748.67 0 0 212.12 -264.97 0 0 778.77 -218.74 0 0 -778.77zm1332.2 212.86c0,51.39 -11.99,95.41 -35.97,132.12 -23.97,36.7 -57.25,62.88 -99.81,78.54l179.83 355.25 -239.3 0 -165.14 -340.57 -129.92 0 0 340.57 -218.72 0 0 -990.89 483.7 0c68.5,0 123.3,20.3 164.41,60.92 40.62,41.1 60.92,95.91 60.92,164.41l0 199.65zm-490.31 29.36l223.87 0c16.64,0 28.87,-3.91 36.7,-11.75 7.35,-7.33 11.02,-19.32 11.02,-35.95l0 -146.81c0,-16.64 -3.67,-28.87 -11.02,-36.7 -7.83,-7.33 -20.06,-11.01 -36.7,-11.01l-223.87 0 0 242.22zm-4284.31 1354.96l240.75 0 333.23 990.9 -221.66 0 -66.79 -201.85 -331.04 0 -66.06 201.85 -222.39 0 333.96 -990.9zm223.87 599.68l-104.23 -316.36 -103.49 316.36 207.72 0zm427.18 -599.68l218.72 0 0 621.7 133.59 134.32 133.59 -134.32 0 -621.7 218.72 0 0 703.9 -286.98 287 -130.65 0 -286.99 -287 0 -703.9zm1109.05 212.13l-264.97 0 0 -212.13 748.67 0 0 212.13 -264.97 0 0 778.77 -218.73 0 0 -778.77zm1330 553.43c0,68.5 -20.31,123.06 -60.92,163.68 -40.62,41.1 -95.18,61.66 -163.69,61.66l-256.9 0c-68.5,0 -123.06,-20.56 -163.67,-61.66 -41.11,-40.62 -61.66,-95.18 -61.66,-163.68l0 -540.22c0,-68.51 20.55,-123.31 61.66,-164.42 40.61,-40.61 95.17,-60.92 163.67,-60.92l256.9 0c68.51,0 123.07,20.31 163.69,60.92 40.61,41.11 60.92,95.91 60.92,164.42l0 540.22zm-488.12 -34.49c0,16.63 3.92,28.62 11.75,35.95 7.35,7.84 19.34,11.75 35.97,11.75l173.96 0c17.12,0 29.36,-3.91 36.69,-11.75 7.35,-7.33 11.01,-19.32 11.01,-35.95l0 -471.24c0,-16.63 -3.66,-28.87 -11.01,-36.69 -7.33,-7.34 -19.57,-11.01 -36.69,-11.01l-173.96 0c-16.63,0 -28.62,3.67 -35.97,11.01 -7.83,7.82 -11.75,20.06 -11.75,36.69l0 471.24zm656.94 -731.07l218 0 195.23 306.09 195.98 -306.09 218 0 0 990.9 -218.73 0 0 -626.1 -194.51 291.4 -195.25 -291.4 0 626.1 -218.72 0 0 -990.9zm1238.24 0l240.75 0 333.24 990.9 -221.66 0 -66.8 -201.85 -331.03 0 -66.06 201.85 -222.4 0 333.96 -990.9zm223.87 599.68l-104.22 -316.36 -103.49 316.36 207.71 0zm662.79 -387.55l-264.97 0 0 -212.13 748.67 0 0 212.13 -264.97 0 0 778.77 -218.73 0 0 -778.77zm642.24 -212.13l218.74 0 0 990.9 -218.74 0 0 -990.9zm406.64 0l218.72 0 0 408.1 286.26 -408.1 264.97 0 -313.41 413.25 328.83 577.65 -248.82 0 -222.41 -388.29 -95.42 126.24 0 262.05 -218.72 0 0 -990.9zm1119.33 0l240.75 0 333.24 990.9 -221.66 0 -66.8 -201.85 -331.03 0 -66.06 201.85 -222.4 0 333.96 -990.9zm223.87 599.68l-104.22 -316.36 -103.49 316.36 207.71 0z"/>
  </g>
 </g>
</svg>
