<svg width="484" height="151" viewBox="0 0 484 151" fill="none" xmlns="http://www.w3.org/2000/svg">
<mask id="mask0_0_4" style="mask-type:luminance" maskUnits="userSpaceOnUse" x="0" y="0" width="151" height="151">
<path d="M91.3321 1.73733C131.972 10.5788 157.75 50.692 148.908 91.3321C140.066 131.972 99.9528 157.75 59.313 148.908C18.6733 140.067 -7.10461 99.9536 1.73721 59.3135C10.579 18.6734 50.6919 -7.10488 91.3321 1.73733Z" fill="white"/>
</mask>
<g mask="url(#mask0_0_4)">
<path fill-rule="evenodd" clip-rule="evenodd" d="M92.3684 6.82605C56.4841 9.14366 32.879 29.1839 24.2424 56.3534C17.5648 77.3608 19.6703 103.134 32.9988 125.121C36.36 130.667 40.9789 137.944 48.0138 144.868C39.8814 142.011 29.6963 135.257 24.0943 129.802C4.24193 110.473 -2.85753 81.4978 7.35362 52.4287C20.3851 15.3278 54.7984 -6.37092 92.3684 6.82605Z" fill="#E31E24"/>
<path fill-rule="evenodd" clip-rule="evenodd" d="M74.1632 31.6954C53.9457 96.9221 115.807 146.022 178.997 120.509C154.161 149.824 114.929 148.551 85.9795 124.026C57.0306 99.5009 49.3275 61.011 74.1632 31.6954Z" fill="#E31E24"/>
<path fill-rule="evenodd" clip-rule="evenodd" d="M77.2337 44.1036C81.7664 108.215 152.785 130.163 199.499 86.2159C187.723 120.406 152.878 132.681 119.115 121.053C85.3525 109.424 65.4578 78.2939 77.2337 44.1036Z" fill="#E31E24"/>
<path fill-rule="evenodd" clip-rule="evenodd" d="M84.0028 52.0531C108.288 107.197 177.906 104.095 205.225 50.5314C205.651 84.43 178.785 106.288 145.31 106.708C111.835 107.129 84.428 85.9516 84.0028 52.0531Z" fill="#E31E24"/>
<path fill-rule="evenodd" clip-rule="evenodd" d="M86.5657 11.9606C23.4446 38.0182 25.5275 117.59 85.495 149.96C75.5329 151.26 62.7165 150.197 56.5702 148.259C46.8519 141.325 38.5415 129.391 32.5162 118.79C26.2127 107.699 22.864 94.3335 23.0186 79.9777C23.4279 42.0388 48.1464 11.5464 86.5657 11.9606Z" fill="#E31E24"/>
<path fill-rule="evenodd" clip-rule="evenodd" d="M77.5742 21.1501C32.1107 72.1042 68.0166 142.449 136.096 145.461C101.334 161.826 66.1676 144.386 50.0075 110.058C33.847 75.7307 42.8124 37.5151 77.5742 21.1501Z" fill="#E31E24"/>
</g>
<path d="M176.237 44.9306C173.647 44.9306 171.585 44.1535 170.05 42.6005C168.497 41.0656 167.72 39.0035 167.72 36.4138V30.921C167.72 28.332 168.497 26.2605 170.05 24.7071C171.585 23.1718 173.647 22.4046 176.237 22.4046H186.279C188.868 22.4046 190.94 23.1718 192.493 24.7071C194.027 26.2605 194.795 28.332 194.795 30.921V33.4733H186.529V32.1973C186.529 31.5503 186.389 31.0877 186.112 30.8099C185.816 30.5329 185.354 30.3942 184.725 30.3942H177.79C177.161 30.3942 176.708 30.5329 176.43 30.8099C176.135 31.0877 175.987 31.5503 175.987 32.1973V35.36C175.987 36.0071 176.135 36.4697 176.43 36.7467C176.708 37.0245 177.161 37.1629 177.79 37.1629H186.279C188.868 37.1629 190.94 37.9305 192.493 39.4654C194.027 41.0192 194.795 43.0903 194.795 45.6801V51.3392C194.795 53.9282 194.027 55.9903 192.493 57.5251C190.94 59.0789 188.868 59.8556 186.279 59.8556H176.237C173.647 59.8556 171.585 59.0789 170.05 57.5251C168.497 55.9903 167.72 53.9282 167.72 51.3392V48.6757H175.987V50.0624C175.987 50.7102 176.135 51.1725 176.43 51.4499C176.708 51.7273 177.161 51.866 177.79 51.866H184.725C185.354 51.866 185.816 51.7273 186.112 51.4499C186.389 51.1725 186.529 50.7102 186.529 50.0624V46.7338C186.529 46.0867 186.389 45.6241 186.112 45.3471C185.816 45.0693 185.354 44.9306 184.725 44.9306H176.237ZM209.415 46.2342V59.8556H201.149V22.4046H219.263C221.853 22.4046 223.924 23.1718 225.478 24.7071C227.013 26.2605 227.78 28.332 227.78 30.921V37.7177C227.78 40.3075 227.013 42.3692 225.478 43.9044C223.924 45.4578 221.853 46.2342 219.263 46.2342H209.415ZM209.415 38.4669H217.682C218.33 38.4669 218.802 38.3285 219.097 38.0507C219.375 37.7736 219.513 37.311 219.513 36.6636V32.225C219.513 31.5775 219.375 31.1156 219.097 30.8378C218.802 30.5608 218.33 30.4217 217.682 30.4217H209.415V38.4669ZM233.883 22.4046H258.851V30.3942H242.15V37.1629H255.356V44.9306H242.15V51.866H258.851V59.8556H233.883V22.4046ZM264.926 22.4046H273.193V37.8288L284.012 22.4046H294.027L282.181 38.0231L294.61 59.8556H285.205L276.799 45.1804L273.193 49.9517V59.8556H264.926V22.4046ZM306.982 30.4217H296.967V22.4046H325.264V30.4217H315.249V59.8556H306.982V30.4217ZM357.333 38.4669C357.333 40.4092 356.879 42.0729 355.973 43.4603C355.067 44.8474 353.809 45.8369 352.201 46.4288L358.997 59.8556H349.953L343.712 46.9836H338.801V59.8556H330.535V22.4046H348.816C351.405 22.4046 353.476 23.1718 355.03 24.7071C356.565 26.2605 357.333 28.332 357.333 30.921V38.4669ZM338.801 39.5765H347.262C347.891 39.5765 348.354 39.4287 348.649 39.1324C348.927 38.8554 349.066 38.4022 349.066 37.7737V32.225C349.066 31.596 348.927 31.1338 348.649 30.8378C348.354 30.5608 347.891 30.4217 347.262 30.4217H338.801V39.5765ZM176.874 90.7876H185.974L198.568 128.239H190.191L187.666 120.61H175.154L172.658 128.239H164.252L176.874 90.7876ZM185.336 113.453L181.396 101.496L177.485 113.453H185.336ZM201.481 90.7876H209.748V114.285L214.797 119.362L219.846 114.285V90.7876H228.112V117.392L217.266 128.239H212.328L201.481 117.392V90.7876ZM243.398 98.8051H233.383V90.7876H261.68V98.8051H251.665V128.239H243.398V98.8051ZM293.666 119.722C293.666 122.311 292.898 124.373 291.363 125.908C289.828 127.462 287.766 128.239 285.176 128.239H275.467C272.878 128.239 270.816 127.462 269.281 125.908C267.727 124.373 266.95 122.311 266.95 119.722V99.3044C266.95 96.715 267.727 94.6438 269.281 93.09C270.816 91.5552 272.878 90.7876 275.467 90.7876H285.176C287.766 90.7876 289.828 91.5552 291.363 93.09C292.898 94.6438 293.666 96.715 293.666 99.3044V119.722ZM275.217 118.419C275.217 119.047 275.365 119.5 275.661 119.777C275.939 120.074 276.392 120.221 277.021 120.221H283.596C284.243 120.221 284.705 120.074 284.982 119.777C285.26 119.5 285.398 119.047 285.398 118.419V100.608C285.398 99.9794 285.26 99.5168 284.982 99.2212C284.705 98.9438 284.243 98.8051 283.596 98.8051H277.021C276.392 98.8051 275.939 98.9438 275.661 99.2212C275.365 99.5168 275.217 99.9794 275.217 100.608V118.419ZM300.046 90.7876H308.286L315.664 102.356L323.072 90.7876H331.311V128.239H323.044V104.575L315.692 115.589L308.313 104.575V128.239H300.046V90.7876ZM346.846 90.7876H355.945L368.54 128.239H360.162L357.638 120.61H345.126L342.629 128.239H334.224L346.846 90.7876ZM355.307 113.453L351.368 101.496L347.457 113.453H355.307ZM380.357 98.8051H370.343V90.7876H398.639V98.8051H388.624V128.239H380.357V98.8051ZM404.631 90.7876H412.898V128.239H404.631V90.7876ZM420 90.7876H428.267V106.212L439.086 90.7876H449.101L437.255 106.406L449.683 128.239H440.279L431.873 113.563L428.267 118.335V128.239H420V90.7876ZM462.306 90.7876H471.405L484 128.239H475.622L473.097 120.61H460.586L458.089 128.239H449.683L462.306 90.7876ZM470.767 113.453L466.828 101.496L462.916 113.453H470.767Z" fill="#2B2A29"/>
</svg>
