<?xml version="1.0" encoding="UTF-8"?>
<!DOCTYPE svg PUBLIC "-//W3C//DTD SVG 1.1//EN" "http://www.w3.org/Graphics/SVG/1.1/DTD/svg11.dtd">
<svg xmlns="http://www.w3.org/2000/svg" version="1.1" width="129px" height="40px" style="shape-rendering:geometricPrecision; text-rendering:geometricPrecision; image-rendering:optimizeQuality; fill-rule:evenodd; clip-rule:evenodd" xmlns:xlink="http://www.w3.org/1999/xlink">
<g><path style="opacity:1" fill="#302f2f" d="M -0.5,-0.5 C 3.83333,-0.5 8.16667,-0.5 12.5,-0.5C 5.86827,1.465 1.53494,5.79833 -0.5,12.5C -0.5,8.16667 -0.5,3.83333 -0.5,-0.5 Z"/></g>
<g><path style="opacity:1" fill="#2d2c2b" d="M 21.5,-0.5 C 57.1667,-0.5 92.8333,-0.5 128.5,-0.5C 128.5,1.16667 128.5,2.83333 128.5,4.5C 123.706,3.9031 119.373,4.56977 115.5,6.5C 116.919,7.45115 118.585,7.78448 120.5,7.5C 120.263,8.79105 120.596,9.79105 121.5,10.5C 121.177,14.226 121.511,17.8927 122.5,21.5C 123.494,16.544 123.827,11.544 123.5,6.5C 125.167,6.5 126.833,6.5 128.5,6.5C 128.5,17.5 128.5,28.5 128.5,39.5C 92.8333,39.5 57.1667,39.5 21.5,39.5C 22.984,38.5267 23.484,37.1933 23,35.5C 17.9699,31.2424 13.3032,31.5757 9,36.5C 8.28885,34.6332 8.78885,33.1332 10.5,32C 17.2056,29.237 22.7056,30.737 27,36.5C 30.9115,34.687 31.4115,32.187 28.5,29C 35.4713,20.0276 35.1379,11.3609 27.5,3C 25.2726,2.05898 23.2726,0.892318 21.5,-0.5 Z"/></g>
<g><path style="opacity:1" fill="#c5c6c5" d="M 60.5,4.5 C 63.5184,4.33537 66.5184,4.50204 69.5,5C 74.7007,8.24021 74.7007,11.5735 69.5,15C 70.9557,16.7448 72.289,18.5781 73.5,20.5C 73,20.8333 72.5,21.1667 72,21.5C 70.3889,19.7904 68.8889,17.9571 67.5,16C 65.8659,15.5065 64.1992,15.3398 62.5,15.5C 62.7989,17.604 62.4656,19.604 61.5,21.5C 60.5046,15.8722 60.1712,10.2055 60.5,4.5 Z"/></g>
<g><path style="opacity:1" fill="#d2d2d2" d="M 128.5,4.5 C 128.5,5.16667 128.5,5.83333 128.5,6.5C 126.833,6.5 125.167,6.5 123.5,6.5C 123.827,11.544 123.494,16.544 122.5,21.5C 121.511,17.8927 121.177,14.226 121.5,10.5C 121.5,9.16667 121.5,7.83333 121.5,6.5C 119.5,6.5 117.5,6.5 115.5,6.5C 119.373,4.56977 123.706,3.9031 128.5,4.5 Z"/></g>
<g><path style="opacity:1" fill="#696868" d="M 115.5,6.5 C 117.5,6.5 119.5,6.5 121.5,6.5C 121.5,7.83333 121.5,9.16667 121.5,10.5C 120.596,9.79105 120.263,8.79105 120.5,7.5C 118.585,7.78448 116.919,7.45115 115.5,6.5 Z"/></g>
<g><path style="opacity:1" fill="#373635" d="M 62.5,6.5 C 64.8568,6.33669 67.1902,6.50335 69.5,7C 70.4061,8.69946 70.7394,10.5328 70.5,12.5C 67.8333,12.5 65.1667,12.5 62.5,12.5C 62.5,10.5 62.5,8.5 62.5,6.5 Z"/></g>
<g><path style="opacity:1" fill="#a3a3a3" d="M 76.5,4.5 C 77.5,4.5 78.5,4.5 79.5,4.5C 79.5,10.1667 79.5,15.8333 79.5,21.5C 78.5,21.5 77.5,21.5 76.5,21.5C 76.5,15.8333 76.5,10.1667 76.5,4.5 Z"/></g>
<g><path style="opacity:1" fill="#737272" d="M 95.5,6.5 C 92.7131,7.47667 89.7131,7.81 86.5,7.5C 86.5,8.83333 86.5,10.1667 86.5,11.5C 88.4147,11.2155 90.0813,11.5489 91.5,12.5C 89.5,12.5 87.5,12.5 85.5,12.5C 85.5,10.5 85.5,8.5 85.5,6.5C 88.8333,6.5 92.1667,6.5 95.5,6.5 Z"/></g>
<g><path style="opacity:1" fill="#c7c7c7" d="M 99.5,4.5 C 103.662,7.75248 107.162,11.7525 110,16.5C 110.173,12.4592 110.673,8.45922 111.5,4.5C 112.833,10.1667 112.833,15.8333 111.5,21.5C 108.129,18.1294 105.129,14.4627 102.5,10.5C 102.44,9.95691 102.107,9.62358 101.5,9.5C 100.675,13.1224 100.175,16.789 100,20.5C 99.5006,15.1771 99.334,9.84372 99.5,4.5 Z"/></g>
<g><path style="opacity:1" fill="#919190" d="M 99.5,4.5 C 99.334,9.84372 99.5006,15.1771 100,20.5C 100.175,16.789 100.675,13.1224 101.5,9.5C 102.107,9.62358 102.44,9.95691 102.5,10.5C 101.518,13.9619 101.185,17.6286 101.5,21.5C 100.5,21.5 99.5,21.5 98.5,21.5C 98.1778,15.642 98.5111,9.97533 99.5,4.5 Z"/></g>
<g><path style="opacity:1" fill="#c6c7c7" d="M 44.5,4.5 C 51.6027,3.20181 55.6027,6.03514 56.5,13C 55.602,20.1251 51.602,22.7917 44.5,21C 39.1932,15.4284 39.1932,9.92842 44.5,4.5 Z"/></g>
<g><path style="opacity:1" fill="#302f2d" d="M 45.5,6.5 C 52.7447,5.96315 55.578,9.29649 54,16.5C 46.4173,21.8389 42.7506,19.8389 43,10.5C 43.6622,9.01608 44.4955,7.68275 45.5,6.5 Z"/></g>
<g><path style="opacity:1" fill="#cbcbcc" d="M 95.5,6.5 C 92.1667,6.5 88.8333,6.5 85.5,6.5C 85.5,8.5 85.5,10.5 85.5,12.5C 87.5,12.5 89.5,12.5 91.5,12.5C 92.675,12.281 93.675,12.6143 94.5,13.5C 91.5719,14.4841 88.5719,14.8174 85.5,14.5C 85.5,16.1667 85.5,17.8333 85.5,19.5C 88.8984,19.1796 92.2317,19.513 95.5,20.5C 91.5546,21.4909 87.5546,21.8242 83.5,21.5C 83.5,15.8333 83.5,10.1667 83.5,4.5C 87.9707,3.91057 91.9707,4.57723 95.5,6.5 Z"/></g>
<g><path style="opacity:1" fill="#343332" d="M -0.5,21.5 C 0.952321,23.8257 2.28565,26.3257 3.5,29C 2.67046,30.4651 2.50379,31.9651 3,33.5C 7.91568,26.8647 14.4157,24.698 22.5,27C 26.2407,28.5002 27.9074,31.0002 27.5,34.5C 20.2976,27.8606 13.1309,27.8606 6,34.5C 5.38277,35.4491 5.54943,36.2825 6.5,37C 7.76591,37.3095 8.93257,37.8095 10,38.5C 12.994,34.1972 16.494,33.5305 20.5,36.5C 17.3837,36.9201 14.7171,37.9201 12.5,39.5C 8.16667,39.5 3.83333,39.5 -0.5,39.5C -0.5,33.5 -0.5,27.5 -0.5,21.5 Z"/></g>
<g><path style="opacity:1" fill="#abaaaa" d="M 68.5,25.5 C 69.2891,25.7828 69.9558,26.2828 70.5,27C 69.783,28.6524 69.4496,30.1524 69.5,31.5C 68.1345,29.4464 67.8012,27.4464 68.5,25.5 Z"/></g>
<g><path style="opacity:1" fill="#959494" d="M 100.5,26.5 C 105.073,26.9757 105.573,28.6423 102,31.5C 99.3894,30.5001 98.8894,28.8334 100.5,26.5 Z"/></g>
<g><path style="opacity:1" fill="#a5a4a4" d="M 113.5,25.5 C 116.839,26.1101 117.172,27.2768 114.5,29C 115.291,30.101 115.291,30.9344 114.5,31.5C 113.534,29.604 113.201,27.604 113.5,25.5 Z"/></g>
<g><path style="opacity:1" fill="#636362" d="M 72.5,24.5 C 73.7251,25.1522 74.3917,26.3189 74.5,28C 74.1667,29.1667 73.8333,30.3333 73.5,31.5C 72.5258,29.2573 72.1924,26.924 72.5,24.5 Z"/></g>
<g><path style="opacity:1" fill="#878786" d="M 94.5,27.5 C 95.3864,26.2241 96.3864,26.2241 97.5,27.5C 96.7666,28.087 95.7666,28.087 94.5,27.5 Z"/></g>
<g><path style="opacity:1" fill="#a3a3a3" d="M 106.5,26.5 C 107.833,26.5 109.167,26.5 110.5,26.5C 110.653,32.3239 109.987,32.6572 108.5,27.5C 107.013,32.6572 106.347,32.3239 106.5,26.5 Z"/></g>
<g><path style="opacity:1" fill="#989898" d="M 62.5,26.5 C 65.5983,26.4125 65.9316,26.9125 63.5,28C 64.9733,28.7096 65.6399,29.8762 65.5,31.5C 62.4017,31.5875 62.0684,31.0875 64.5,30C 63.0267,29.2904 62.3601,28.1238 62.5,26.5 Z"/></g>
<g><path style="opacity:1" fill="#8d8c8c" d="M 77.5,26.5 C 80.7973,26.3287 81.1306,26.9954 78.5,28.5C 79.5,29.1667 80.5,29.8333 81.5,30.5C 77.4668,31.7474 76.1335,30.414 77.5,26.5 Z"/></g>
<g><path style="opacity:1" fill="#9a9a9a" d="M 118.5,26.5 C 119.833,26.5 121.167,26.5 122.5,26.5C 122.5,28.1667 122.5,29.8333 122.5,31.5C 121.167,31.5 119.833,31.5 118.5,31.5C 118.5,29.8333 118.5,28.1667 118.5,26.5 Z"/></g>
<g><path style="opacity:1" fill="#828181" d="M 94.5,27.5 C 95.0065,28.8589 96.0065,29.8589 97.5,30.5C 96.3493,31.731 95.1827,31.731 94,30.5C 93.2599,29.2506 93.4265,28.2506 94.5,27.5 Z"/></g>
<g><path style="opacity:1" fill="#858584" d="M 124.5,26.5 C 125.552,26.3505 126.552,26.5172 127.5,27C 125.772,33.0482 124.772,32.8816 124.5,26.5 Z"/></g>
<g><path style="opacity:1" fill="#757374" d="M 44.5,26.5 C 47.9103,26.3838 49.2436,28.0504 48.5,31.5C 44.0706,32.0826 42.7372,30.4159 44.5,26.5 Z"/></g>
<g><path style="opacity:1" fill="#8b8a8a" d="M 51.5,26.5 C 52.8333,26.5 54.1667,26.5 55.5,26.5C 56.4015,30.2407 55.0681,32.2407 51.5,32.5C 51.5,30.5 51.5,28.5 51.5,26.5 Z"/></g>
<g><path style="opacity:1" fill="#8d8d8c" d="M 83.5,26.5 C 84.552,26.3505 85.552,26.5172 86.5,27C 86.1667,27.3333 85.8333,27.6667 85.5,28C 88.1941,30.5525 87.5274,31.7192 83.5,31.5C 83.5,29.8333 83.5,28.1667 83.5,26.5 Z"/></g>
<g><path style="opacity:1" fill="#bcbcbc" d="M 12.5,-0.5 C 14.1667,-0.5 15.8333,-0.5 17.5,-0.5C 17.238,0.977822 17.5713,2.31116 18.5,3.5C 27.3929,6.27893 30.8929,12.2789 29,21.5C 28.028,23.3049 26.8613,24.9716 25.5,26.5C 26,26.8333 26.5,27.1667 27,27.5C 29.0257,26.4798 30.3591,24.8132 31,22.5C 33.407,11.9748 29.5737,4.97483 19.5,1.5C 18.7025,1.04311 18.3691,0.376442 18.5,-0.5C 19.5,-0.5 20.5,-0.5 21.5,-0.5C 23.2726,0.892318 25.2726,2.05898 27.5,3C 35.1379,11.3609 35.4713,20.0276 28.5,29C 31.4115,32.187 30.9115,34.687 27,36.5C 22.7056,30.737 17.2056,29.237 10.5,32C 8.78885,33.1332 8.28885,34.6332 9,36.5C 13.3032,31.5757 17.9699,31.2424 23,35.5C 23.484,37.1933 22.984,38.5267 21.5,39.5C 18.5,39.5 15.5,39.5 12.5,39.5C 14.7171,37.9201 17.3837,36.9201 20.5,36.5C 16.494,33.5305 12.994,34.1972 10,38.5C 8.93257,37.8095 7.76591,37.3095 6.5,37C 5.54943,36.2825 5.38277,35.4491 6,34.5C 13.1309,27.8606 20.2976,27.8606 27.5,34.5C 27.9074,31.0002 26.2407,28.5002 22.5,27C 14.4157,24.698 7.91568,26.8647 3,33.5C 2.50379,31.9651 2.67046,30.4651 3.5,29C 2.28565,26.3257 0.952321,23.8257 -0.5,21.5C -0.5,18.5 -0.5,15.5 -0.5,12.5C 1.53494,5.79833 5.86827,1.465 12.5,-0.5 Z"/></g>
<g><path style="opacity:1" fill="#2f2e2d" d="M 17.5,5.5 C 27.7025,8.68678 30.2025,15.0201 25,24.5C 23.9505,25.5171 22.7839,25.6838 21.5,25C 26.7318,19.6323 26.7318,14.299 21.5,9C 20.5,8.33333 19.5,8.33333 18.5,9C 24.7576,13.5609 25.0909,18.5609 19.5,24C 11.8393,24.6699 8.67266,21.1699 10,13.5C 11.7155,10.6026 14.2155,9.26928 17.5,9.5C 17.5,8.16667 17.5,6.83333 17.5,5.5 Z"/></g>
<g><path style="opacity:1" fill="#353433" d="M 10.5,1.5 C 12.1667,1.5 13.8333,1.5 15.5,1.5C 15.7989,3.60395 15.4656,5.60395 14.5,7.5C 6.4296,12.0885 5.4296,17.9218 11.5,25C 10.5,25.6667 9.5,25.6667 8.5,25C 3.07421,16.0818 5.07421,9.24842 14.5,4.5C 9.3797,4.3889 5.8797,7.05557 4,12.5C 2.74347,17.8254 3.91014,22.4921 7.5,26.5C 7.19238,27.3081 6.69238,27.9747 6,28.5C 0.832344,21.9923 0.165678,14.9923 4,7.5C 6.06274,5.26589 8.2294,3.26589 10.5,1.5 Z"/></g>
<g><path style="opacity:1" fill="#383736" d="M 17.5,-0.5 C 17.8333,-0.5 18.1667,-0.5 18.5,-0.5C 18.3691,0.376442 18.7025,1.04311 19.5,1.5C 29.5737,4.97483 33.407,11.9748 31,22.5C 30.3591,24.8132 29.0257,26.4798 27,27.5C 26.5,27.1667 26,26.8333 25.5,26.5C 26.8613,24.9716 28.028,23.3049 29,21.5C 30.8929,12.2789 27.3929,6.27893 18.5,3.5C 17.5713,2.31116 17.238,0.977822 17.5,-0.5 Z"/></g>
</svg>
