<svg xmlns="http://www.w3.org/2000/svg" version="1.0" preserveAspectRatio="xMidYMid meet" viewBox="383.5 75.09 202.38 202.41">

<g transform="translate(0.000000,453.000000) scale(0.100000,-0.100000)" fill="#000000" stroke="none">
<path d="M4160 3769 c-126 -21 -243 -110 -299 -229 l-26 -55 0 -725 0 -725 29 -60 c38 -77 114 -153 191 -191 l60 -29 725 0 725 0 66 31 c108 52 180 137 214 255 14 50 15 136 13 745 l-3 689 -31 65 c-35 74 -99 144 -166 184 -92 53 -126 56 -813 55 -346 -1 -655 -5 -685 -10z m822 -498 c89 -45 101 -64 330 -541 111 -230 138 -289 138 -303 0 -13 -172 -97 -198 -97 -7 0 -38 52 -68 115 -31 63 -59 115 -63 115 -4 0 -135 -48 -292 -106 -156 -58 -295 -110 -309 -114 -14 -5 -51 -18 -83 -29 l-58 -21 -72 61 c-40 34 -73 65 -75 69 -3 7 20 56 208 445 160 333 181 365 265 405 62 29 65 30 150 27 61 -2 91 -8 127 -26z"/>
<path d="M4812 3063 c-17 -6 -214 -411 -210 -429 2 -9 65 11 203 62 110 41 203 78 208 83 11 11 -119 268 -142 280 -21 12 -38 13 -59 4z"/>
</g>
</svg>