<?xml version="1.0" encoding="UTF-8"?>
<!DOCTYPE svg PUBLIC "-//W3C//DTD SVG 1.1//EN" "http://www.w3.org/Graphics/SVG/1.1/DTD/svg11.dtd">
<!-- Creator: CorelDRAW 2020 (64-Bit) -->
<svg xmlns="http://www.w3.org/2000/svg" xml:space="preserve" width="210mm" height="297mm" version="1.1" style="shape-rendering:geometricPrecision; text-rendering:geometricPrecision; image-rendering:optimizeQuality; fill-rule:evenodd; clip-rule:evenodd"
viewBox="0 0 21000 29700"
 xmlns:xlink="http://www.w3.org/1999/xlink"
 xmlns:xodm="http://www.corel.com/coreldraw/odm/2003">
 <defs>
  <style type="text/css">
   <![CDATA[
    .fil0 {fill:#EBECEC}
    .fil1 {fill:#8A2943}
   ]]>
  </style>
 </defs>
 <g id="Слой_x0020_1">
  <metadata id="CorelCorpID_0Corel-Layer"/>
  <g id="_2650600538000">
   <polygon class="fil0" points="7273.47,14276.38 13712.27,14276.38 13712.27,15424.68 7273.47,15424.68 "/>
   <path class="fil1" d="M8106.55 14868.47c0,-78.01 14.57,-134.37 81.94,-182.72 7.88,-5.67 16.56,-10.99 25.02,-15.36 9.46,-4.89 18.57,-7.95 27.61,-12.74l0 -62.8c24.35,6.5 20.53,24.9 44.86,31.4 16.87,-12.36 4.05,-16.32 26.91,-22.43 3.93,14.74 6.51,14.77 17.95,22.43 24.33,-6.5 20.51,-24.9 44.84,-31.4l0 62.8c43.02,22.75 55.98,24.99 92.95,68.53 21.78,25.63 41.62,73.71 41.62,119.86l0 206.34 -219.79 0c-65.93,0 -135.86,-51.52 -164.56,-109.05 -8.65,-17.34 -19.35,-50.83 -19.35,-74.86zm-165.95 -179.42l0 322.96c0,99.32 107,206.33 206.33,206.33l529.3 0 0 -515.84c0,-114.47 -107.42,-219.79 -206.34,-219.79l-322.96 0c-99.33,0 -206.33,107.01 -206.33,206.34z"/>
   <path class="fil1" d="M9398.39 14626.25l0 470.98 80.74 4.49c22.54,0 20.08,-4.04 40.38,-4.49l0 -278.1 202.22 268.76c13.38,17.17 -0.24,13.83 57.94,13.83 28.86,0 71.76,0.67 71.76,-17.95l0 -448.55c0,-16.32 -10.87,-12.7 -26.17,-14.19 -18.34,-1.79 -99.42,-10.88 -99.42,14.19 0,57.46 -5.83,229.37 4.49,273.62 -13.12,-8.79 -97.35,-129.84 -109.58,-146.11 -19.8,-26.35 -35.62,-48.75 -55.16,-74.92l-39.43 -54.77c-14.58,-19.69 -7.56,-15.76 -56,-15.76 -31.51,0 -46.03,6.83 -71.77,8.97z"/>
   <path class="fil1" d="M12013.48 14626.25l0 470.98 76.25 4.49c24.89,0 26.59,-4.49 49.33,-4.49l0 -251.19c0,-15.46 -3.31,-17.37 -4.48,-31.4l190.24 253.84c37.19,54.34 45.72,28.75 141.7,28.75l0 -475.47c-26.89,0 -38.57,-4.17 -58.44,-4.65 -20.24,-0.49 -35.47,4.65 -62.68,4.65l0 287.08 -190.19 -258.37c-25.37,-37.32 -21.47,-33.19 -60.99,-33.19 -34.39,0 -52.49,6.62 -80.74,8.97z"/>
   <path class="fil1" d="M10183.36 14715.96c46.5,0 86.52,3.49 122.32,43.66 63.16,70.86 48.4,243.41 -113.35,243.41 -118.11,0 -171.71,-146.37 -101.44,-240.5 15.74,-21.08 58.22,-46.57 92.47,-46.57zm-260.16 143.54c0,329.85 551.72,339.23 551.72,0 0,-151.25 -122.89,-251.19 -251.18,-251.19 -91.83,0 -157.94,7.18 -225.43,75.1 -46.07,46.37 -75.11,105.05 -75.11,176.09z"/>
   <path class="fil1" d="M11246.45 15016.49l-80.74 0 0 -112.14c58.3,0 148.01,-14.66 148.01,58.31 0,33.34 -33.63,53.83 -67.27,53.83zm-40.38 -206.33l-40.36 0 0 -98.69c28.65,-2.38 130.07,-21.33 130.07,49.34 0,20.1 -12.97,36.62 -28.04,43.74 -28.3,13.36 -34.99,5.61 -61.67,5.61zm-165.96 -179.43l0 466.5c22.61,1.88 46.84,7.88 71.8,8.94 85.78,3.64 174.83,16.31 257.28,-25.24 75.9,-38.25 103.94,-153.28 18.19,-209.87 -13.8,-9.12 -20.31,-8.94 -28.8,-20.53 79.24,-21.16 113.24,-233.25 -125.6,-233.25l-125.74 4.32c-27.88,1.85 -44.05,7.21 -67.13,9.13z"/>
   <path class="fil1" d="M10744.05 14841.55c-90.93,0 -71.75,23 -71.75,-116.62 0,-20.69 25.21,-13.46 76.25,-13.46 97.87,0 96.43,130.08 -4.5,130.08zm-197.35 -210.82l0 462.02c36.17,17.36 91.81,7.29 125.6,4.48l0 -161.48c85.41,0 52.38,-13.44 144.43,124.7 31.64,47.51 16.75,41.27 75.35,41.27 35.38,0 56.35,-8.33 85.22,-8.97 -7.19,-26.96 -109.36,-156.76 -116.61,-183.91 129.41,-68.48 126.59,-257.37 -53.04,-287.86 -72.68,-12.34 -127.92,-5.3 -198.29,0.65 -24.44,2.07 -41.65,7.35 -62.66,9.1z"/>
   <path class="fil1" d="M12569.68 14635.22l0 462.01 85.22 4.49c22.55,0 20.08,-4.04 40.38,-4.49 0,-156.26 -15.4,-152.29 35.88,-179.42 19.09,28.5 93.01,104.05 119.79,135.89 46.46,55.27 18.24,43.53 153.82,43.53 22.55,0 20.1,-4.03 40.38,-4.48 -4.47,-16.7 -12.4,-17.95 -23.51,-30.33l-82.82 -92.11c-11.48,-13.73 -13.93,-18.26 -27.14,-31.17l-81.84 -93.1c14.65,-21.89 33.64,-32.86 52.77,-50.4 26.03,-23.85 128.48,-143.21 135.63,-173.88 -35.49,0 -52.67,-4.48 -85.23,-4.48 -25.6,0 -31.02,4.48 -58.32,4.48 -45.9,68.55 -111.15,142.68 -179.41,188.4l0 -188.4c-58.33,0 -23.27,-8.17 -99.42,-0.73 -15.3,1.49 -26.18,-2.13 -26.18,14.19z"/>
   <path class="fil1" d="M11708.45 14769.79c1.26,15.1 17.72,54.22 24.32,69.87 8.4,19.92 23.16,46.83 25.03,69.18l-107.65 0c10.06,-21.01 18.79,-47.02 28.19,-70.48 10.27,-25.6 19.02,-60.44 30.11,-68.57zm-255.68 322.96c34.41,2.86 59.85,15.7 108.24,5.06 21.73,-4.78 14.65,-2.74 23.28,-26.05 8.87,-23.91 19.9,-44.73 25.48,-68.73l188.4 0c10.23,19.34 18.76,41.53 26.87,62.85 11.32,29.79 12.89,35.84 53.87,35.84 30.22,0 65.17,-3.84 85.22,-13.46l-192.87 -466.5c-35.9,0 -60.21,-9.78 -108.83,-1.16 -27.41,4.87 -23.28,14.83 -50.72,83.85 -15.41,38.82 -157.08,365.9 -158.94,388.3z"/>
   <path class="fil1" d="M9084.4 14769.79c12.45,9.12 55.3,126.06 58.31,139.05l-107.65 0c9.43,-40.48 46.53,-105.19 49.34,-139.05zm-183.91 331.93c27.3,0 32.72,-4.49 58.33,-4.49 4.27,-18.37 11.4,-32.99 17.93,-49.34 24.3,-60.82 -15.76,-44.86 197.37,-44.86 15.11,0 13.92,12.12 18.76,26.1l26.55 63.15c0.66,0.65 1.67,1.52 2.42,2.08 22.36,16.74 101.13,0.18 122.71,-1.61 -1.62,-19.47 -92.67,-232.04 -102.47,-256.37l-78.66 -190.48c-12.47,-32.05 -28.12,-28.62 -83.51,-28.62 -66.96,0 -50.06,9.2 -92.66,104.7l-117.48 281.74c-34.68,86.32 -46.9,85.56 -18,92.52 14.1,3.4 33.21,5.48 48.71,5.48z"/>
   <path class="fil1" d="M8223.19 14850.53c0,25.13 13.86,48.82 27.77,61.92 32.85,30.9 85.64,23.3 138.19,23.3 0,-62.56 10.89,-117.8 -26.78,-148.17 -65.08,-52.47 -139.18,0.11 -139.18,62.95z"/>
  </g>
 </g>
</svg>
