<?xml version="1.0" encoding="UTF-8"?>
<!DOCTYPE svg PUBLIC "-//W3C//DTD SVG 1.1//EN" "http://www.w3.org/Graphics/SVG/1.1/DTD/svg11.dtd">
<svg xmlns="http://www.w3.org/2000/svg" version="1.1" width="278px" height="86px" style="shape-rendering:geometricPrecision; text-rendering:geometricPrecision; image-rendering:optimizeQuality; fill-rule:evenodd; clip-rule:evenodd" xmlns:xlink="http://www.w3.org/1999/xlink">
<g><path style="opacity:1" fill="#fcfcfa" d="M -0.5,-0.5 C 10.5,-0.5 21.5,-0.5 32.5,-0.5C 32.5,-0.166667 32.5,0.166667 32.5,0.5C 24.1932,1.81865 17.1932,5.48532 11.5,11.5C 6.08628,16.326 2.75294,22.326 1.5,29.5C 0.833333,30.5 0.166667,31.5 -0.5,32.5C -0.5,21.5 -0.5,10.5 -0.5,-0.5 Z"/></g>
<g><path style="opacity:1" fill="#fcfcfc" d="M 45.5,-0.5 C 122.833,-0.5 200.167,-0.5 277.5,-0.5C 277.5,28.1667 277.5,56.8333 277.5,85.5C 184.833,85.5 92.1667,85.5 -0.5,85.5C -0.5,72.1667 -0.5,58.8333 -0.5,45.5C 0.403972,46.209 0.737305,47.209 0.5,48.5C 1.78383,55.7279 5.11716,61.7279 10.5,66.5C 12.9626,70.3002 16.296,72.9668 20.5,74.5C 23.1598,76.4967 26.1598,77.9967 29.5,79C 45.3609,82.3213 58.6942,78.1547 69.5,66.5C 70.4959,66.5858 71.3292,66.2524 72,65.5C 74.4074,60.1053 76.9074,54.7719 79.5,49.5C 79.5,49.1667 79.5,48.8333 79.5,48.5C 79.5,48.1667 79.5,47.8333 79.5,47.5C 80.8333,41.5 80.8333,35.5 79.5,29.5C 78.4469,24.9951 76.4469,20.9951 73.5,17.5C 72.9202,15.2512 71.5869,13.5846 69.5,12.5C 69.5,11.8333 69.1667,11.5 68.5,11.5C 62.0501,5.1089 54.3835,1.1089 45.5,-0.5 Z"/></g>
<g><path style="opacity:1" fill="#6d6b69" d="M 32.5,0.5 C 32.5,0.166667 32.5,-0.166667 32.5,-0.5C 36.8333,-0.5 41.1667,-0.5 45.5,-0.5C 54.3835,1.1089 62.0501,5.1089 68.5,11.5C 61.5,11.5 54.5,11.5 47.5,11.5C 50.977,10.6773 54.6437,10.1773 58.5,10C 57.6634,8.98873 57.33,7.82207 57.5,6.5C 54.2738,5.47498 51.1072,4.14164 48,2.5C 42.9406,0.993421 37.7739,0.326754 32.5,0.5 Z"/></g>
<g><path style="opacity:1" fill="#282320" d="M 31.5,11.5 C 27.2984,11.1832 23.2984,11.5166 19.5,12.5C 16.6146,12.8064 13.9479,12.4731 11.5,11.5C 16.061,10.4707 20.2277,8.47069 24,5.5C 29.5497,3.28756 35.0497,3.1209 40.5,5C 37.6304,7.43956 34.6304,9.60623 31.5,11.5 Z"/></g>
<g><path style="opacity:1" fill="#4b4745" d="M 32.5,0.5 C 37.7739,0.326754 42.9406,0.993421 48,2.5C 51.1072,4.14164 54.2738,5.47498 57.5,6.5C 57.33,7.82207 57.6634,8.98873 58.5,10C 54.6437,10.1773 50.977,10.6773 47.5,11.5C 42.1667,11.5 36.8333,11.5 31.5,11.5C 34.6304,9.60623 37.6304,7.43956 40.5,5C 35.0497,3.1209 29.5497,3.28756 24,5.5C 20.2277,8.47069 16.061,10.4707 11.5,11.5C 17.1932,5.48532 24.1932,1.81865 32.5,0.5 Z"/></g>
<g><path style="opacity:1" fill="#edad0e" d="M 19.5,13.5 C 19.2527,18.6557 19.586,23.6557 20.5,28.5C 16.5,28.5 12.5,28.5 8.5,28.5C 8.77786,24.4962 9.77786,20.6628 11.5,17C 11.3552,16.228 11.0219,15.5613 10.5,15C 13.3508,13.7114 16.3508,13.2114 19.5,13.5 Z"/></g>
<g><path style="opacity:1" fill="#d99c35" d="M 11.5,11.5 C 13.9479,12.4731 16.6146,12.8064 19.5,12.5C 19.5,12.8333 19.5,13.1667 19.5,13.5C 16.3508,13.2114 13.3508,13.7114 10.5,15C 11.0219,15.5613 11.3552,16.228 11.5,17C 9.77786,20.6628 8.77786,24.4962 8.5,28.5C 12.5,28.5 16.5,28.5 20.5,28.5C 24.1667,28.5 27.8333,28.5 31.5,28.5C 31.5,28.8333 31.5,29.1667 31.5,29.5C 30.5,29.5 29.5,29.5 28.5,29.5C 19.5,29.5 10.5,29.5 1.5,29.5C 2.75294,22.326 6.08628,16.326 11.5,11.5 Z"/></g>
<g><path style="opacity:1" fill="#f9e97f" d="M 69.5,12.5 C 71.5869,13.5846 72.9202,15.2512 73.5,17.5C 73.9143,21.2024 75.2476,24.5358 77.5,27.5C 66.5202,28.4988 55.5202,28.8321 44.5,28.5C 45.3984,27.8423 46.3984,27.1757 47.5,26.5C 46.5,25.8333 45.5,25.1667 44.5,24.5C 45.9156,20.2992 46.9156,16.2992 47.5,12.5C 54.8333,12.5 62.1667,12.5 69.5,12.5 Z"/></g>
<g><path style="opacity:1" fill="#f5c119" d="M 19.5,12.5 C 25.6828,12.0474 31.6828,12.5474 37.5,14C 36.572,14.3879 35.9054,15.0546 35.5,16C 35.0598,20.5752 33.7265,24.7418 31.5,28.5C 27.8333,28.5 24.1667,28.5 20.5,28.5C 19.586,23.6557 19.2527,18.6557 19.5,13.5C 19.5,13.1667 19.5,12.8333 19.5,12.5 Z"/></g>
<g><path style="opacity:1" fill="#25201f" d="M 97.5,20.5 C 103.509,20.3338 109.509,20.5005 115.5,21C 120.34,22.3375 122.673,25.5041 122.5,30.5C 122.617,33.597 121.617,36.2637 119.5,38.5C 123.274,42.8046 124.44,47.8046 123,53.5C 121.062,56.1059 118.562,57.9392 115.5,59C 109.509,59.4995 103.509,59.6662 97.5,59.5C 97.5,46.5 97.5,33.5 97.5,20.5 Z"/></g>
<g><path style="opacity:1" fill="#2e2928" d="M 180.5,20.5 C 182.167,20.5 183.833,20.5 185.5,20.5C 185.5,33.5 185.5,46.5 185.5,59.5C 183.833,59.5 182.167,59.5 180.5,59.5C 180.5,46.5 180.5,33.5 180.5,20.5 Z"/></g>
<g><path style="opacity:1" fill="#2f2b2a" d="M 192.5,21.5 C 197.041,21.8152 198.041,23.6485 195.5,27C 191.537,27.1177 190.537,25.2843 192.5,21.5 Z"/></g>
<g><path style="opacity:1" fill="#e8c556" d="M 19.5,12.5 C 23.2984,11.5166 27.2984,11.1832 31.5,11.5C 36.8333,11.5 42.1667,11.5 47.5,11.5C 54.5,11.5 61.5,11.5 68.5,11.5C 69.1667,11.5 69.5,11.8333 69.5,12.5C 62.1667,12.5 54.8333,12.5 47.5,12.5C 46.9156,16.2992 45.9156,20.2992 44.5,24.5C 45.5,25.1667 46.5,25.8333 47.5,26.5C 46.3984,27.1757 45.3984,27.8423 44.5,28.5C 40.1667,28.5 35.8333,28.5 31.5,28.5C 33.7265,24.7418 35.0598,20.5752 35.5,16C 35.9054,15.0546 36.572,14.3879 37.5,14C 31.6828,12.5474 25.6828,12.0474 19.5,12.5 Z"/></g>
<g><path style="opacity:1" fill="#f2f1f0" d="M 102.5,25.5 C 106.182,25.3347 109.848,25.5014 113.5,26C 115.91,26.7579 116.91,28.4246 116.5,31C 116.646,33.0342 115.98,34.7009 114.5,36C 110.514,36.4988 106.514,36.6655 102.5,36.5C 102.5,32.8333 102.5,29.1667 102.5,25.5 Z"/></g>
<g><path style="opacity:1" fill="#d9c77d" d="M 73.5,17.5 C 76.4469,20.9951 78.4469,24.9951 79.5,29.5C 63.5,29.5 47.5,29.5 31.5,29.5C 31.5,29.1667 31.5,28.8333 31.5,28.5C 35.8333,28.5 40.1667,28.5 44.5,28.5C 55.5202,28.8321 66.5202,28.4988 77.5,27.5C 75.2476,24.5358 73.9143,21.2024 73.5,17.5 Z"/></g>
<g><path style="opacity:1" fill="#221f1c" d="M 1.5,29.5 C 10.5,29.5 19.5,29.5 28.5,29.5C 29.209,30.404 30.209,30.7373 31.5,30.5C 31.5,30.8333 31.5,31.1667 31.5,31.5C 31.0618,31.4346 30.7284,31.6012 30.5,32C 33.7805,37.2807 37.7805,41.9474 42.5,46C 47.2389,47.0514 51.9056,47.8847 56.5,48.5C 38.1667,48.5 19.8333,48.5 1.5,48.5C 1.5,42.1667 1.5,35.8333 1.5,29.5 Z"/></g>
<g><path style="opacity:1" fill="#2b2625" d="M 134.5,32.5 C 146.267,31.3249 151.267,36.6582 149.5,48.5C 144.167,48.5 138.833,48.5 133.5,48.5C 133.178,50.7224 133.845,52.5557 135.5,54C 139.821,54.499 144.154,54.6657 148.5,54.5C 148.762,55.9778 148.429,57.3112 147.5,58.5C 132.305,62.1426 125.805,56.1426 128,40.5C 129.305,37.0386 131.471,34.372 134.5,32.5 Z"/></g>
<g><path style="opacity:1" fill="#2c2726" d="M 160.5,32.5 C 172.257,31.2944 177.257,36.6277 175.5,48.5C 170.167,48.5 164.833,48.5 159.5,48.5C 159.178,50.7224 159.845,52.5557 161.5,54C 165.486,54.4988 169.486,54.6655 173.5,54.5C 173.773,56.451 173.107,57.951 171.5,59C 167.5,59.6667 163.5,59.6667 159.5,59C 156.337,57.5202 154.504,55.0202 154,51.5C 151.661,43.4007 153.827,37.0674 160.5,32.5 Z"/></g>
<g><path style="opacity:1" fill="#2e2928" d="M 202.5,32.5 C 204.451,32.2267 205.951,32.8934 207,34.5C 212.046,31.6513 216.879,31.9846 221.5,35.5C 222,36.5 222.5,37.5 223,38.5C 223.5,45.4921 223.666,52.4921 223.5,59.5C 221.5,59.5 219.5,59.5 217.5,59.5C 217.666,52.4921 217.5,45.4921 217,38.5C 214,37.1667 211,37.1667 208,38.5C 207.5,45.4921 207.334,52.4921 207.5,59.5C 205.833,59.5 204.167,59.5 202.5,59.5C 202.5,50.5 202.5,41.5 202.5,32.5 Z"/></g>
<g><path style="opacity:1" fill="#2b2626" d="M 234.5,32.5 C 246.267,31.3249 251.267,36.6582 249.5,48.5C 244.167,48.5 238.833,48.5 233.5,48.5C 233.178,50.7224 233.845,52.5557 235.5,54C 239.821,54.499 244.154,54.6657 248.5,54.5C 248.714,56.1439 248.38,57.6439 247.5,59C 231.917,62.4168 225.417,56.2502 228,40.5C 229.305,37.0386 231.471,34.372 234.5,32.5 Z"/></g>
<g><path style="opacity:1" fill="#25201f" d="M 191.5,32.5 C 193.167,32.5 194.833,32.5 196.5,32.5C 196.5,41.5 196.5,50.5 196.5,59.5C 194.833,59.5 193.167,59.5 191.5,59.5C 191.5,50.5 191.5,41.5 191.5,32.5 Z"/></g>
<g><path style="opacity:1" fill="#6e6d6b" d="M 254.5,33.5 C 255.601,32.4017 256.934,32.235 258.5,33C 257.897,34.8254 257.23,36.6587 256.5,38.5C 255.83,36.7086 255.163,35.0419 254.5,33.5 Z"/></g>
<g><path style="opacity:1" fill="#2e2d2b" d="M 261.5,35.5 C 260.732,36.2625 260.232,37.2625 260,38.5C 259.333,36.5 259.333,34.5 260,32.5C 261.039,33.2438 261.539,34.2438 261.5,35.5 Z"/></g>
<g><path style="opacity:1" fill="#4f4e4c" d="M 261.5,35.5 C 262.712,34.7701 263.712,33.7701 264.5,32.5C 265.641,34.4213 265.808,36.4213 265,38.5C 264.717,35.2577 263.883,34.9244 262.5,37.5C 261.702,37.0431 261.369,36.3764 261.5,35.5 Z"/></g>
<g><path style="opacity:1" fill="#5d5955" d="M 28.5,29.5 C 29.5,29.5 30.5,29.5 31.5,29.5C 47.5,29.5 63.5,29.5 79.5,29.5C 80.8333,35.5 80.8333,41.5 79.5,47.5C 78.6129,43.9042 77.6129,40.2376 76.5,36.5C 73.1476,36.7837 70.1476,37.9504 67.5,40C 57.0158,42.0845 48.3491,39.0845 41.5,31C 38.1832,30.5017 34.8499,30.335 31.5,30.5C 30.209,30.7373 29.209,30.404 28.5,29.5 Z"/></g>
<g><path style="opacity:1" fill="#f6f6f5" d="M 143.5,40.5 C 143.5,41.5 143.5,42.5 143.5,43.5C 140.167,43.5 136.833,43.5 133.5,43.5C 133.867,37.8442 136.867,36.0109 142.5,38C 143.252,38.6708 143.586,39.5041 143.5,40.5 Z"/></g>
<g><path style="opacity:1" fill="#fafaf9" d="M 169.5,43.5 C 165.671,44.069 162.337,43.4023 159.5,41.5C 160.828,37.746 163.494,36.5793 167.5,38C 169.155,39.4443 169.822,41.2776 169.5,43.5 Z"/></g>
<g><path style="opacity:1" fill="#f7f7f6" d="M 243.5,40.5 C 243.5,41.5 243.5,42.5 243.5,43.5C 239.671,44.069 236.337,43.4023 233.5,41.5C 234.033,38.4752 235.867,37.1419 239,37.5C 241.626,37.0503 243.126,38.0503 243.5,40.5 Z"/></g>
<g><path style="opacity:1" fill="#45413e" d="M 31.5,31.5 C 31.5,31.1667 31.5,30.8333 31.5,30.5C 34.8499,30.335 38.1832,30.5017 41.5,31C 48.3491,39.0845 57.0158,42.0845 67.5,40C 70.1476,37.9504 73.1476,36.7837 76.5,36.5C 77.6129,40.2376 78.6129,43.9042 79.5,47.5C 79.5,47.8333 79.5,48.1667 79.5,48.5C 78.5,48.5 77.5,48.5 76.5,48.5C 76.5,46.1667 76.5,43.8333 76.5,41.5C 65.7874,45.6202 55.1207,45.4535 44.5,41C 41.1667,38.3333 38.1667,35.3333 35.5,32C 34.2068,31.51 32.8734,31.3433 31.5,31.5 Z"/></g>
<g><path style="opacity:1" fill="#f9f8f8" d="M 114.5,42.5 C 117.138,43.2415 118.471,45.0749 118.5,48C 118.516,51.5154 116.85,53.3487 113.5,53.5C 110.167,53.5 106.833,53.5 103.5,53.5C 103.5,49.8333 103.5,46.1667 103.5,42.5C 107.167,42.5 110.833,42.5 114.5,42.5 Z"/></g>
<g><path style="opacity:1" fill="#4b4744" d="M 1.5,29.5 C 1.5,35.8333 1.5,42.1667 1.5,48.5C 1.16667,48.5 0.833333,48.5 0.5,48.5C 0.737305,47.209 0.403972,46.209 -0.5,45.5C -0.5,41.1667 -0.5,36.8333 -0.5,32.5C 0.166667,31.5 0.833333,30.5 1.5,29.5 Z"/></g>
<g><path style="opacity:1" fill="#8f8c8b" d="M 143.5,40.5 C 144.434,41.5676 144.768,42.901 144.5,44.5C 140.629,44.815 136.962,44.4816 133.5,43.5C 136.833,43.5 140.167,43.5 143.5,43.5C 143.5,42.5 143.5,41.5 143.5,40.5 Z"/></g>
<g><path style="opacity:1" fill="#928e8d" d="M 159.5,41.5 C 162.337,43.4023 165.671,44.069 169.5,43.5C 166.038,44.4816 162.371,44.815 158.5,44.5C 158.263,43.209 158.596,42.209 159.5,41.5 Z"/></g>
<g><path style="opacity:1" fill="#878483" d="M 243.5,40.5 C 244.434,41.5676 244.768,42.901 244.5,44.5C 240.5,44.5 236.5,44.5 232.5,44.5C 232.263,43.209 232.596,42.209 233.5,41.5C 236.337,43.4023 239.671,44.069 243.5,43.5C 243.5,42.5 243.5,41.5 243.5,40.5 Z"/></g>
<g><path style="opacity:1" fill="#332f2c" d="M 31.5,31.5 C 32.8734,31.3433 34.2068,31.51 35.5,32C 38.1667,35.3333 41.1667,38.3333 44.5,41C 55.1207,45.4535 65.7874,45.6202 76.5,41.5C 76.5,43.8333 76.5,46.1667 76.5,48.5C 69.8333,48.5 63.1667,48.5 56.5,48.5C 51.9056,47.8847 47.2389,47.0514 42.5,46C 37.7805,41.9474 33.7805,37.2807 30.5,32C 30.7284,31.6012 31.0618,31.4346 31.5,31.5 Z"/></g>
<g><path style="opacity:1" fill="#9d9a98" d="M 114.5,42.5 C 110.833,42.5 107.167,42.5 103.5,42.5C 103.5,46.1667 103.5,49.8333 103.5,53.5C 106.833,53.5 110.167,53.5 113.5,53.5C 110.038,54.4816 106.371,54.815 102.5,54.5C 102.5,50.1667 102.5,45.8333 102.5,41.5C 106.702,41.1832 110.702,41.5166 114.5,42.5 Z"/></g>
<g><path style="opacity:1" fill="#e4ab11" d="M 19.5,49.5 C 20.209,50.404 21.209,50.7373 22.5,50.5C 22.6187,55.2116 22.6187,59.7116 22.5,64C 23.1667,64.6667 23.8333,65.3333 24.5,66C 32.1594,66.4997 39.8261,66.6664 47.5,66.5C 51.1667,66.5 54.8333,66.5 58.5,66.5C 58.5,66.8333 58.5,67.1667 58.5,67.5C 43.4644,67.7848 28.4644,67.4515 13.5,66.5C 10.6678,64.8428 8.3345,62.5095 6.5,59.5C 8.29291,56.6824 9.62624,53.6824 10.5,50.5C 13.4552,49.8413 16.4552,49.5079 19.5,49.5 Z"/></g>
<g><path style="opacity:1" fill="#f8cb23" d="M 67.5,49.5 C 71.5,49.5 75.5,49.5 79.5,49.5C 76.9074,54.7719 74.4074,60.1053 72,65.5C 71.3292,66.2524 70.4959,66.5858 69.5,66.5C 68.5,66.5 67.5,66.5 66.5,66.5C 67.7853,65.2147 69.1186,63.8814 70.5,62.5C 69.624,61.7492 68.624,61.2492 67.5,61C 67.756,56.8219 67.756,52.9886 67.5,49.5 Z"/></g>
<g><path style="opacity:1" fill="#f7c609" d="M 19.5,49.5 C 28.8333,49.5 38.1667,49.5 47.5,49.5C 46.2705,53.3667 46.2705,57.2001 47.5,61C 46.8333,62 46.1667,63 45.5,64C 46.3805,64.7083 47.0472,65.5416 47.5,66.5C 39.8261,66.6664 32.1594,66.4997 24.5,66C 23.8333,65.3333 23.1667,64.6667 22.5,64C 22.6187,59.7116 22.6187,55.2116 22.5,50.5C 21.209,50.7373 20.209,50.404 19.5,49.5 Z"/></g>
<g><path style="opacity:1" fill="#c08a2e" d="M 0.5,48.5 C 0.833333,48.5 1.16667,48.5 1.5,48.5C 19.8333,48.5 38.1667,48.5 56.5,48.5C 63.1667,48.5 69.8333,48.5 76.5,48.5C 77.5,48.5 78.5,48.5 79.5,48.5C 79.5,48.8333 79.5,49.1667 79.5,49.5C 75.5,49.5 71.5,49.5 67.5,49.5C 60.8333,49.5 54.1667,49.5 47.5,49.5C 38.1667,49.5 28.8333,49.5 19.5,49.5C 16.4552,49.5079 13.4552,49.8413 10.5,50.5C 9.62624,53.6824 8.29291,56.6824 6.5,59.5C 8.3345,62.5095 10.6678,64.8428 13.5,66.5C 12.5,66.5 11.5,66.5 10.5,66.5C 5.11716,61.7279 1.78383,55.7279 0.5,48.5 Z"/></g>
<g><path style="opacity:1" fill="#f8e109" d="M 47.5,49.5 C 54.1667,49.5 60.8333,49.5 67.5,49.5C 67.756,52.9886 67.756,56.8219 67.5,61C 68.624,61.2492 69.624,61.7492 70.5,62.5C 69.1186,63.8814 67.7853,65.2147 66.5,66.5C 63.8333,66.5 61.1667,66.5 58.5,66.5C 54.8333,66.5 51.1667,66.5 47.5,66.5C 47.0472,65.5416 46.3805,64.7083 45.5,64C 46.1667,63 46.8333,62 47.5,61C 46.2705,57.2001 46.2705,53.3667 47.5,49.5 Z"/></g>
<g><path style="opacity:1" fill="#23201f" d="M 10.5,66.5 C 11.5,66.5 12.5,66.5 13.5,66.5C 28.4644,67.4515 43.4644,67.7848 58.5,67.5C 60.924,67.1924 63.2573,67.5258 65.5,68.5C 62.6319,70.5318 59.6319,72.3651 56.5,74C 44.3625,74.8432 32.3625,75.0098 20.5,74.5C 16.296,72.9668 12.9626,70.3002 10.5,66.5 Z"/></g>
<g><path style="opacity:1" fill="#33302b" d="M 58.5,67.5 C 58.5,67.1667 58.5,66.8333 58.5,66.5C 61.1667,66.5 63.8333,66.5 66.5,66.5C 67.5,66.5 68.5,66.5 69.5,66.5C 58.6942,78.1547 45.3609,82.3213 29.5,79C 26.1598,77.9967 23.1598,76.4967 20.5,74.5C 32.3625,75.0098 44.3625,74.8432 56.5,74C 59.6319,72.3651 62.6319,70.5318 65.5,68.5C 63.2573,67.5258 60.924,67.1924 58.5,67.5 Z"/></g>
</svg>
