<?xml version="1.0" encoding="UTF-8"?>
<!DOCTYPE svg PUBLIC "-//W3C//DTD SVG 1.1//EN" "http://www.w3.org/Graphics/SVG/1.1/DTD/svg11.dtd">
<svg xmlns="http://www.w3.org/2000/svg" version="1.1" width="185px" height="121px" style="shape-rendering:geometricPrecision; text-rendering:geometricPrecision; image-rendering:optimizeQuality; fill-rule:evenodd; clip-rule:evenodd" xmlns:xlink="http://www.w3.org/1999/xlink">
<g><path style="opacity:1" fill="#fefdfc" d="M -0.5,-0.5 C 61.1667,-0.5 122.833,-0.5 184.5,-0.5C 184.5,39.8333 184.5,80.1667 184.5,120.5C 122.833,120.5 61.1667,120.5 -0.5,120.5C -0.5,80.1667 -0.5,39.8333 -0.5,-0.5 Z"/></g>
<g><path style="opacity:1" fill="#c1d138" d="M 56.5,16.5 C 83.3141,16.0374 108.647,21.8707 132.5,34C 157.513,49.0908 158.846,66.0908 136.5,85C 116.112,99.6874 93.4456,106.021 68.5,104C 45.9878,99.156 31.4878,85.656 25,63.5C 19.6487,36.8054 30.1487,21.1388 56.5,16.5 Z"/></g>
<g><path style="opacity:1" fill="#fdfcf9" d="M 55.5,19.5 C 81.0964,18.8523 105.43,24.019 128.5,35C 154.064,48.1761 156.064,64.1761 134.5,83C 117.95,94.3511 99.6168,100.851 79.5,102.5C 48.0073,100.1 30.3407,83.2667 26.5,52C 26.9028,32.7695 36.5695,21.9362 55.5,19.5 Z"/></g>
<g><path style="opacity:1" fill="#5b4a42" d="M 79.5,36.5 C 84.7936,35.6239 88.1269,37.7905 89.5,43C 87.4152,49.6246 83.4152,51.1246 77.5,47.5C 74.7892,43.2801 75.4558,39.6134 79.5,36.5 Z"/></g>
<g><path style="opacity:1" fill="#5b4942" d="M 54.5,25.5 C 54.0845,34.9488 54.0845,44.6155 54.5,54.5C 64.2738,50.4779 70.7738,53.4779 74,63.5C 75.8256,74.8676 71.3256,82.2009 60.5,85.5C 57.7894,84.9863 55.2894,83.9863 53,82.5C 51.566,84.1355 49.7326,85.1355 47.5,85.5C 46.0276,69.191 45.5276,52.8576 46,36.5C 48.2835,32.3862 51.1169,28.7196 54.5,25.5 Z"/></g>
<g><path style="opacity:1" fill="#fdfcfc" d="M 55.5,57.5 C 66.7212,57.9073 70.5546,63.5739 67,74.5C 64.1309,80.3502 59.6309,82.0168 53.5,79.5C 52.3358,72.8582 52.1691,66.1915 53,59.5C 53.9947,58.9341 54.828,58.2674 55.5,57.5 Z"/></g>
<g><path style="opacity:1" fill="#c0232f" d="M 95.5,36.5 C 104.173,36.3336 112.84,36.5002 121.5,37C 122,37.5 122.5,38 123,38.5C 123.667,53.5 123.667,68.5 123,83.5C 122.5,84 122,84.5 121.5,85C 112.588,85.8163 103.755,85.6497 95,84.5C 94.1831,68.4259 94.3498,52.4259 95.5,36.5 Z"/></g>
<g><path style="opacity:1" fill="#9f2d39" d="M 111.5,43.5 C 113.476,53.7809 114.143,64.4476 113.5,75.5C 117.517,74.8386 118.851,76.1719 117.5,79.5C 116.952,76.9162 115.285,75.9162 112.5,76.5C 112.81,65.4187 112.477,54.4187 111.5,43.5 Z"/></g>
<g><path style="opacity:1" fill="#fbf9fa" d="M 111.5,43.5 C 112.477,54.4187 112.81,65.4187 112.5,76.5C 115.285,75.9162 116.952,76.9162 117.5,79.5C 112.456,79.8275 107.456,79.4941 102.5,78.5C 103.624,77.1408 104.958,76.1408 106.5,75.5C 107.82,67.9902 107.82,60.3235 106.5,52.5C 105.893,52.6236 105.56,52.9569 105.5,53.5C 103.516,54.6942 101.516,54.6942 99.5,53.5C 102.143,49.0232 105.643,45.3565 110,42.5C 110.383,43.056 110.883,43.3893 111.5,43.5 Z"/></g>
<g><path style="opacity:1" fill="#a1434e" d="M 105.5,53.5 C 105.56,52.9569 105.893,52.6236 106.5,52.5C 107.82,60.3235 107.82,67.9902 106.5,75.5C 106.825,67.9809 106.492,60.6476 105.5,53.5 Z"/></g>
<g><path style="opacity:1" fill="#5c4942" d="M 84.5,51.5 C 85.5,51.5 86.5,51.5 87.5,51.5C 87.0266,62.8283 86.6933,74.1616 86.5,85.5C 84.1667,85.5 81.8333,85.5 79.5,85.5C 78.8652,76.1719 78.1985,66.8386 77.5,57.5C 77.8333,56.5 78.1667,55.5 78.5,54.5C 80.78,53.8641 82.78,52.8641 84.5,51.5 Z"/></g>
</svg>
