<?xml version="1.0" encoding="UTF-8"?>
<!DOCTYPE svg PUBLIC "-//W3C//DTD SVG 1.1//EN" "http://www.w3.org/Graphics/SVG/1.1/DTD/svg11.dtd">
<svg xmlns="http://www.w3.org/2000/svg" version="1.1" width="195px" height="56px" style="shape-rendering:geometricPrecision; text-rendering:geometricPrecision; image-rendering:optimizeQuality; fill-rule:evenodd; clip-rule:evenodd" xmlns:xlink="http://www.w3.org/1999/xlink">
<g><path style="opacity:1" fill="#fbf9fb" d="M -0.5,-0.5 C 64.5,-0.5 129.5,-0.5 194.5,-0.5C 194.5,18.1667 194.5,36.8333 194.5,55.5C 129.5,55.5 64.5,55.5 -0.5,55.5C -0.5,36.8333 -0.5,18.1667 -0.5,-0.5 Z"/></g>
<g><path style="opacity:1" fill="#6f64a5" d="M 37.5,4.5 C 38.6085,5.28997 39.9419,5.78997 41.5,6C 29.8609,8.41834 25.0276,15.585 27,27.5C 30.564,37.3482 37.064,40.1815 46.5,36C 48.9941,34.0876 48.8274,32.2543 46,30.5C 45.586,30.9574 45.086,31.2907 44.5,31.5C 43.218,30.0416 43.218,28.7082 44.5,27.5C 44.8333,27.5 45.1667,27.5 45.5,27.5C 46.7429,30.1063 48.0762,30.1063 49.5,27.5C 50.2508,28.376 50.7508,29.376 51,30.5C 54.6922,20.5793 52.1922,12.746 43.5,7C 44.056,6.61742 44.3893,6.11742 44.5,5.5C 53.2214,10.6215 56.5548,18.2882 54.5,28.5C 48.7399,41.3133 40.2399,43.6466 29,35.5C 22.4002,25.3328 23.2335,15.8328 31.5,7C 33.4885,6.06168 35.4885,5.22835 37.5,4.5 Z"/></g>
<g><path style="opacity:1" fill="#453788" d="M 37.5,4.5 C 39.9029,4.44805 42.2362,4.78138 44.5,5.5C 44.3893,6.11742 44.056,6.61742 43.5,7C 52.1922,12.746 54.6922,20.5793 51,30.5C 50.7508,29.376 50.2508,28.376 49.5,27.5C 48.0762,30.1063 46.7429,30.1063 45.5,27.5C 45.6715,25.5082 45.0049,23.8415 43.5,22.5C 44.4453,19.7084 44.4453,17.2084 43.5,15C 40.6055,13.4334 37.6055,13.2667 34.5,14.5C 34.393,16.9032 35.393,18.7365 37.5,20C 36.233,21.7959 36.233,23.6293 37.5,25.5C 36.229,25.1255 35.0623,25.7922 34,27.5C 33.2211,29.9063 34.0544,31.573 36.5,32.5C 38.0709,31.6906 39.7376,31.3573 41.5,31.5C 41.5041,29.1579 42.3375,27.1579 44,25.5C 44.4643,26.0944 44.631,26.7611 44.5,27.5C 43.218,28.7082 43.218,30.0416 44.5,31.5C 45.086,31.2907 45.586,30.9574 46,30.5C 48.8274,32.2543 48.9941,34.0876 46.5,36C 37.064,40.1815 30.564,37.3482 27,27.5C 25.0276,15.585 29.8609,8.41834 41.5,6C 39.9419,5.78997 38.6085,5.28997 37.5,4.5 Z"/></g>
<g><path style="opacity:1" fill="#a59dc4" d="M 45.5,27.5 C 45.1667,27.5 44.8333,27.5 44.5,27.5C 44.631,26.7611 44.4643,26.0944 44,25.5C 42.3375,27.1579 41.5041,29.1579 41.5,31.5C 39.7376,31.3573 38.0709,31.6906 36.5,32.5C 34.0544,31.573 33.2211,29.9063 34,27.5C 35.0623,25.7922 36.229,25.1255 37.5,25.5C 36.233,23.6293 36.233,21.7959 37.5,20C 35.393,18.7365 34.393,16.9032 34.5,14.5C 37.6055,13.2667 40.6055,13.4334 43.5,15C 44.4453,17.2084 44.4453,19.7084 43.5,22.5C 45.0049,23.8415 45.6715,25.5082 45.5,27.5 Z"/></g>
<g><path style="opacity:1" fill="#e43b2c" d="M 104.5,15.5 C 106.735,15.2053 108.735,15.5386 110.5,16.5C 110.244,18.7925 110.577,20.9592 111.5,23C 110.552,23.4828 109.552,23.6495 108.5,23.5C 108.167,20.8333 107.833,20.8333 107.5,23.5C 106.5,23.5 105.5,23.5 104.5,23.5C 104.5,20.8333 104.5,18.1667 104.5,15.5 Z"/></g>
<g><path style="opacity:1" fill="#ea5649" d="M 164.5,13.5 C 168.138,12.7366 169.638,14.0699 169,17.5C 164.415,19.4126 162.915,18.0793 164.5,13.5 Z"/></g>
<g><path style="opacity:1" fill="#de959d" d="M 80.5,15.5 C 81.1667,26.1667 81.8333,26.1667 82.5,15.5C 82.8333,15.5 83.1667,15.5 83.5,15.5C 82.9644,18.6981 83.631,21.3647 85.5,23.5C 83.7354,24.4614 81.7354,24.7947 79.5,24.5C 79.19,21.2869 79.5233,18.2869 80.5,15.5 Z"/></g>
<g><path style="opacity:1" fill="#dc2d25" d="M 80.5,15.5 C 81.1667,15.5 81.8333,15.5 82.5,15.5C 81.8333,26.1667 81.1667,26.1667 80.5,15.5 Z"/></g>
<g><path style="opacity:1" fill="#e14336" d="M 83.5,15.5 C 85.1238,15.3601 86.2904,16.0267 87,17.5C 90.1494,15.6375 93.6494,14.9709 97.5,15.5C 97.2178,16.7777 96.5511,17.7777 95.5,18.5C 95.5,20.1667 95.5,21.8333 95.5,23.5C 93.6921,22.0821 93.0254,20.0821 93.5,17.5C 92.209,17.2627 91.209,17.596 90.5,18.5C 90.5,20.5 90.5,22.5 90.5,24.5C 88.8762,24.6399 87.7096,23.9733 87,22.5C 86.6174,23.056 86.1174,23.3893 85.5,23.5C 83.631,21.3647 82.9644,18.6981 83.5,15.5 Z"/></g>
<g><path style="opacity:1" fill="#e43929" d="M 112.5,15.5 C 114.411,15.5743 115.578,16.5743 116,18.5C 116.236,16.8807 117.069,15.8807 118.5,15.5C 119.036,18.6981 118.369,21.3647 116.5,23.5C 115.452,21.0673 114.786,21.0673 114.5,23.5C 112.631,21.3647 111.964,18.6981 112.5,15.5 Z"/></g>
<g><path style="opacity:1" fill="#f1a8a4" d="M 126.5,17.5 C 127.833,19.5 129.167,21.5 130.5,23.5C 128.5,24.8333 126.5,24.8333 124.5,23.5C 125.492,23.6716 126.158,23.3382 126.5,22.5C 127.72,20.9504 127.72,19.2837 126.5,17.5 Z"/></g>
<g><path style="opacity:1" fill="#e33527" d="M 132.5,15.5 C 132.218,16.7777 131.551,17.7777 130.5,18.5C 130.5,20.1667 130.5,21.8333 130.5,23.5C 129.167,21.5 127.833,19.5 126.5,17.5C 127.918,15.6921 129.918,15.0254 132.5,15.5 Z"/></g>
<g><path style="opacity:1" fill="#e33f30" d="M 133.5,15.5 C 134.765,16.5145 135.431,18.0145 135.5,20C 135.167,21.5 134.833,23 134.5,24.5C 133.893,24.3764 133.56,24.0431 133.5,23.5C 133.5,20.8333 133.5,18.1667 133.5,15.5 Z"/></g>
<g><path style="opacity:1" fill="#e53a2b" d="M 142.5,17.5 C 142.5,19.1667 142.5,20.8333 142.5,22.5C 136.672,24.2167 135.005,22.0501 137.5,16C 139.674,15.1231 141.341,15.6231 142.5,17.5 Z"/></g>
<g><path style="opacity:1" fill="#f7b1ac" d="M 138.5,17.5 C 139.586,17.62 140.253,18.2867 140.5,19.5C 140.167,20.1667 139.833,20.8333 139.5,21.5C 138.571,20.3112 138.238,18.9778 138.5,17.5 Z"/></g>
<g><path style="opacity:1" fill="#e74a3a" d="M 144.5,15.5 C 146.074,15.9371 147.241,16.9371 148,18.5C 148.249,17.376 148.749,16.376 149.5,15.5C 150.314,17.7662 150.814,20.0995 151,22.5C 151.931,20.5405 152.764,18.5405 153.5,16.5C 154.325,15.6143 155.325,15.281 156.5,15.5C 157.742,22.0075 158.408,22.0075 158.5,15.5C 159.5,15.5 160.5,15.5 161.5,15.5C 161.5,17.5 161.5,19.5 161.5,21.5C 162.5,21.5 163.5,21.5 164.5,21.5C 162.365,23.369 159.698,24.0356 156.5,23.5C 155.85,23.1961 155.183,22.8627 154.5,22.5C 151.481,25.3263 148.981,24.9929 147,21.5C 146.536,22.0944 146.369,22.7611 146.5,23.5C 144.631,21.3647 143.964,18.6981 144.5,15.5 Z"/></g>
<g><path style="opacity:1" fill="#ea726b" d="M 144.5,15.5 C 143.964,18.6981 144.631,21.3647 146.5,23.5C 146.265,24.0967 145.765,24.4301 145,24.5C 143.989,23.9444 143.156,23.2778 142.5,22.5C 142.5,20.8333 142.5,19.1667 142.5,17.5C 143.167,16.8333 143.833,16.1667 144.5,15.5 Z"/></g>
<g><path style="opacity:1" fill="#e49fa3" d="M 90.5,18.5 C 91.209,17.596 92.209,17.2627 93.5,17.5C 93.0254,20.0821 93.6921,22.0821 95.5,23.5C 94.791,24.404 93.791,24.7373 92.5,24.5C 92.9746,21.9179 92.3079,19.9179 90.5,18.5 Z"/></g>
<g><path style="opacity:1" fill="#e49fa3" d="M 97.5,15.5 C 97.8333,15.5 98.1667,15.5 98.5,15.5C 98.5,18.1667 98.5,20.8333 98.5,23.5C 100.288,23.7852 101.955,23.4519 103.5,22.5C 102.624,21.7492 101.624,21.2492 100.5,21C 104.5,20 104.5,19 100.5,18C 102.119,17.7645 103.119,16.9311 103.5,15.5C 103.833,15.5 104.167,15.5 104.5,15.5C 104.5,18.1667 104.5,20.8333 104.5,23.5C 105.5,23.5 106.5,23.5 107.5,23.5C 104.375,24.4794 101.042,24.8128 97.5,24.5C 97.9746,21.9179 97.3079,19.9179 95.5,18.5C 96.5511,17.7777 97.2178,16.7777 97.5,15.5 Z"/></g>
<g><path style="opacity:1" fill="#e33a2b" d="M 98.5,15.5 C 100.167,15.5 101.833,15.5 103.5,15.5C 103.119,16.9311 102.119,17.7645 100.5,18C 104.5,19 104.5,20 100.5,21C 101.624,21.2492 102.624,21.7492 103.5,22.5C 101.955,23.4519 100.288,23.7852 98.5,23.5C 98.5,20.8333 98.5,18.1667 98.5,15.5 Z"/></g>
<g><path style="opacity:1" fill="#e53f2e" d="M 126.5,22.5 C 126.158,23.3382 125.492,23.6716 124.5,23.5C 123.5,23.5 122.5,23.5 121.5,23.5C 120.761,23.631 120.094,23.4643 119.5,23C 120.252,22.3292 120.586,21.4959 120.5,20.5C 121.038,18.8828 121.371,17.2161 121.5,15.5C 122.5,15.5 123.5,15.5 124.5,15.5C 124.878,17.921 125.545,20.2543 126.5,22.5 Z"/></g>
<g><path style="opacity:1" fill="#f09089" d="M 132.5,15.5 C 132.833,15.5 133.167,15.5 133.5,15.5C 133.5,18.1667 133.5,20.8333 133.5,23.5C 133.028,21.4687 132.028,19.8021 130.5,18.5C 131.551,17.7777 132.218,16.7777 132.5,15.5 Z"/></g>
<g><path style="opacity:1" fill="#493c8a" d="M 38.5,20.5 C 41.0047,22.1859 41.838,24.5193 41,27.5C 38.3653,25.6077 37.5319,23.2744 38.5,20.5 Z"/></g>
<g><path style="opacity:1" fill="#4d3f8e" d="M 54.5,28.5 C 60.8942,24.6264 65.0609,26.2931 67,33.5C 67.6667,31.8333 67.6667,30.1667 67,28.5C 55.582,17.7997 57.582,12.7997 73,13.5C 73.1578,16.5534 72.6578,19.5534 71.5,22.5C 71.155,16.6279 68.3217,14.6279 63,16.5C 62.3333,17.8333 62.3333,19.1667 63,20.5C 65.8065,22.3947 68.1398,24.7281 70,27.5C 71.2919,31.627 70.1252,34.7937 66.5,37C 63.7152,37.6575 61.0486,38.4909 58.5,39.5C 58.3385,37.1756 57.1718,35.5089 55,34.5C 54.5045,32.5273 54.3379,30.5273 54.5,28.5 Z"/></g>
<g><path style="opacity:1" fill="#eea2a0" d="M 112.5,15.5 C 111.964,18.6981 112.631,21.3647 114.5,23.5C 112.5,24.8333 110.5,24.8333 108.5,23.5C 109.552,23.6495 110.552,23.4828 111.5,23C 110.577,20.9592 110.244,18.7925 110.5,16.5C 111.167,16.1667 111.833,15.8333 112.5,15.5 Z"/></g>
<g><path style="opacity:1" fill="#e2969b" d="M 118.5,15.5 C 119.167,17.1667 119.833,18.8333 120.5,20.5C 120.586,21.4959 120.252,22.3292 119.5,23C 120.094,23.4643 120.761,23.631 121.5,23.5C 119.833,24.8333 118.167,24.8333 116.5,23.5C 118.369,21.3647 119.036,18.6981 118.5,15.5 Z"/></g>
<g><path style="opacity:1" fill="#e1898d" d="M 164.5,21.5 C 165.404,22.209 165.737,23.209 165.5,24.5C 162.287,24.81 159.287,24.4767 156.5,23.5C 159.698,24.0356 162.365,23.369 164.5,21.5 Z"/></g>
<g><path style="opacity:1" fill="#e23c2f" d="M 119.5,26.5 C 119.119,27.9311 118.119,28.7645 116.5,29C 117.448,29.4828 118.448,29.6495 119.5,29.5C 119.5,30.8333 119.5,32.1667 119.5,33.5C 117.965,34.7879 116.299,34.7879 114.5,33.5C 115.376,32.7492 116.376,32.2492 117.5,32C 114.968,31.3878 114.135,29.8878 115,27.5C 116.356,26.6198 117.856,26.2865 119.5,26.5 Z"/></g>
<g><path style="opacity:1" fill="#e53c2b" d="M 121.5,26.5 C 123.467,26.2606 125.301,26.5939 127,27.5C 127.847,30.4904 126.68,31.8238 123.5,31.5C 123.715,33.1788 123.048,34.1788 121.5,34.5C 121.5,31.8333 121.5,29.1667 121.5,26.5 Z"/></g>
<g><path style="opacity:1" fill="#e34639" d="M 131.5,26.5 C 133.604,26.2011 135.604,26.5344 137.5,27.5C 135.827,29.5225 135.16,31.8559 135.5,34.5C 134.5,34.5 133.5,34.5 132.5,34.5C 132.599,31.7628 132.265,29.0961 131.5,26.5 Z"/></g>
<g><path style="opacity:1" fill="#e13224" d="M 145.5,26.5 C 147.308,27.9179 147.975,29.9179 147.5,32.5C 148.675,32.281 149.675,32.6143 150.5,33.5C 148.955,34.4519 147.288,34.7852 145.5,34.5C 145.5,31.8333 145.5,29.1667 145.5,26.5 Z"/></g>
<g><path style="opacity:1" fill="#df4237" d="M 104.5,26.5 C 105.748,27.3339 106.415,28.6672 106.5,30.5C 106.31,35.1494 105.31,35.4828 103.5,31.5C 102.859,32.9935 101.859,33.9935 100.5,34.5C 100.336,31.8127 100.503,29.146 101,26.5C 101.483,27.448 101.649,28.448 101.5,29.5C 102.5,29.5 103.5,29.5 104.5,29.5C 104.5,28.5 104.5,27.5 104.5,26.5 Z"/></g>
<g><path style="opacity:1" fill="#e6e4ef" d="M 58.5,27.5 C 63.7641,27.4166 65.4307,29.75 63.5,34.5C 59.9017,36.0344 57.5684,34.8678 56.5,31C 56.9783,29.6974 57.645,28.5307 58.5,27.5 Z"/></g>
<g><path style="opacity:1" fill="#e3a2a9" d="M 119.5,26.5 C 120.167,26.5 120.833,26.5 121.5,26.5C 121.5,29.1667 121.5,31.8333 121.5,34.5C 120.833,34.1667 120.167,33.8333 119.5,33.5C 119.5,32.1667 119.5,30.8333 119.5,29.5C 118.448,29.6495 117.448,29.4828 116.5,29C 118.119,28.7645 119.119,27.9311 119.5,26.5 Z"/></g>
<g><path style="opacity:1" fill="#e34134" d="M 143.5,31.5 C 144.11,32.391 144.443,33.391 144.5,34.5C 142.416,33.7517 140.416,33.7517 138.5,34.5C 137.357,32.0407 137.69,29.7073 139.5,27.5C 140.325,26.6143 141.325,26.281 142.5,26.5C 142.629,28.2161 142.962,29.8828 143.5,31.5 Z"/></g>
<g><path style="opacity:1" fill="#dc7074" d="M 104.5,26.5 C 104.5,27.5 104.5,28.5 104.5,29.5C 103.5,29.5 102.5,29.5 101.5,29.5C 101.649,28.448 101.483,27.448 101,26.5C 100.503,29.146 100.336,31.8127 100.5,34.5C 99.5233,31.7131 99.19,28.7131 99.5,25.5C 100.5,25.5 101.5,25.5 102.5,25.5C 102.367,28.925 103.033,29.2583 104.5,26.5 Z"/></g>
<g><path style="opacity:1" fill="#e1362b" d="M 108.5,26.5 C 110.144,26.2865 111.644,26.6198 113,27.5C 113.758,29.7695 113.591,31.9361 112.5,34C 110.888,34.7203 109.388,34.5536 108,33.5C 107.297,31.0709 107.463,28.7375 108.5,26.5 Z"/></g>
<g><path style="opacity:1" fill="#e9b9be" d="M 109.5,28.5 C 110.586,28.62 111.253,29.2867 111.5,30.5C 111.167,31.1667 110.833,31.8333 110.5,32.5C 109.571,31.3112 109.238,29.9778 109.5,28.5 Z"/></g>
<g><path style="opacity:1" fill="#e23124" d="M 128.5,26.5 C 129.748,27.3339 130.415,28.6672 130.5,30.5C 130.167,31.8333 129.833,33.1667 129.5,34.5C 128.52,31.9135 128.187,29.2469 128.5,26.5 Z"/></g>
<g><path style="opacity:1" fill="#f0928b" d="M 145.5,26.5 C 145.5,29.1667 145.5,31.8333 145.5,34.5C 145.167,34.5 144.833,34.5 144.5,34.5C 144.443,33.391 144.11,32.391 143.5,31.5C 144.167,29.8333 144.833,28.1667 145.5,26.5 Z"/></g>
<g><path style="opacity:1" fill="#514391" d="M 76.5,17.5 C 77.4972,17.4701 78.1639,17.9701 78.5,19C 77.1287,21.3187 76.4621,23.8187 76.5,26.5C 77.5,26.5 78.5,26.5 79.5,26.5C 79.5792,27.9305 79.2458,29.2638 78.5,30.5C 79.325,31.3857 80.325,31.719 81.5,31.5C 81.6509,27.686 83.6509,26.0193 87.5,26.5C 88.0288,30.1916 87.0288,33.3583 84.5,36C 81.6168,36.7954 80.1168,35.6287 80,32.5C 79.3632,34.3031 78.1965,35.6364 76.5,36.5C 75.6099,34.1739 75.4433,31.8406 76,29.5C 74.5,31.8333 73,34.1667 71.5,36.5C 71.1667,36.1667 70.8333,35.8333 70.5,35.5C 72.7091,29.5395 74.7091,23.5395 76.5,17.5 Z"/></g>
<g><path style="opacity:1" fill="#c5c1db" d="M 84.5,28.5 C 85.4379,30.9227 84.9379,33.256 83,35.5C 82.3911,32.9348 82.8911,30.6015 84.5,28.5 Z"/></g>
<g><path style="opacity:1" fill="#4e408f" d="M 90.5,26.5 C 93.2241,27.3946 95.8908,27.728 98.5,27.5C 94.853,28.9295 93.353,31.5961 94,35.5C 97.5082,31.3888 98.0082,31.5555 95.5,36C 92.7751,35.5707 90.1085,35.404 87.5,35.5C 91.3422,34.1487 92.8422,31.482 92,27.5C 88.31,32.7959 87.81,32.4626 90.5,26.5 Z"/></g>
<g><path style="opacity:1" fill="#bfbad4" d="M 116.5,45.5 C 120.167,44.1667 123.833,44.1667 127.5,45.5C 125.833,45.5 124.167,45.5 122.5,45.5C 122.307,49.449 121.807,49.449 121,45.5C 120.667,46.5 120.333,47.5 120,48.5C 119.241,46.9371 118.074,45.9371 116.5,45.5 Z"/></g>
<g><path style="opacity:1" fill="#b2aecc" d="M 146.5,45.5 C 154.01,44.1801 161.677,44.1801 169.5,45.5C 169.376,46.1067 169.043,46.44 168.5,46.5C 167.054,45.3871 165.387,45.2204 163.5,46C 162.663,47.0113 162.33,48.1779 162.5,49.5C 161.167,49.5 159.833,49.5 158.5,49.5C 159.209,48.596 160.209,48.2627 161.5,48.5C 161.649,47.448 161.483,46.448 161,45.5C 158.976,46.0773 156.809,46.0773 154.5,45.5C 152.616,45.7163 150.949,46.383 149.5,47.5C 148.735,46.3881 147.735,45.7214 146.5,45.5 Z"/></g>
<g><path style="opacity:1" fill="#5f4f96" d="M 36.5,45.5 C 39.2301,48.0507 38.5634,49.384 34.5,49.5C 34.1667,45.5 33.8333,45.5 33.5,49.5C 32.1667,49.5 30.8333,49.5 29.5,49.5C 28.7659,48.2921 28.4326,46.9587 28.5,45.5C 31.1667,45.5 33.8333,45.5 36.5,45.5 Z"/></g>
<g><path style="opacity:1" fill="#584a94" d="M 116.5,45.5 C 118.074,45.9371 119.241,46.9371 120,48.5C 120.333,47.5 120.667,46.5 121,45.5C 121.807,49.449 122.307,49.449 122.5,45.5C 124.167,45.5 125.833,45.5 127.5,45.5C 131.03,44.9889 134.196,45.6556 137,47.5C 137.71,46.0267 138.876,45.3601 140.5,45.5C 140.657,46.8734 140.49,48.2068 140,49.5C 127.281,50.4479 114.448,50.4479 101.5,49.5C 101.5,48.1667 101.5,46.8333 101.5,45.5C 104.711,45.012 107.544,45.6787 110,47.5C 111.754,45.75 113.921,45.0833 116.5,45.5 Z"/></g>
<g><path style="opacity:1" fill="#534692" d="M 146.5,45.5 C 147.735,45.7214 148.735,46.3881 149.5,47.5C 150.949,46.383 152.616,45.7163 154.5,45.5C 156.809,46.0773 158.976,46.0773 161,45.5C 161.483,46.448 161.649,47.448 161.5,48.5C 160.209,48.2627 159.209,48.596 158.5,49.5C 154.455,49.3575 150.621,49.3575 147,49.5C 146.51,48.2068 146.343,46.8734 146.5,45.5 Z"/></g>
<g><path style="opacity:1" fill="#938ab7" d="M 36.5,45.5 C 33.8333,45.5 31.1667,45.5 28.5,45.5C 28.4326,46.9587 28.7659,48.2921 29.5,49.5C 25.3241,50.1693 23.9907,48.6693 25.5,45C 29.3575,44.1901 33.0242,44.3567 36.5,45.5 Z"/></g>
<g><path style="opacity:1" fill="#675a9d" d="M 46.5,44.5 C 55.5003,45.8056 64.5003,45.8056 73.5,44.5C 76.0361,44.8444 78.2028,45.8444 80,47.5C 80.6739,46.4216 81.6739,45.7549 83,45.5C 87.6088,46.5572 92.2754,46.5572 97,45.5C 98.8715,45.7094 100.038,46.7094 100.5,48.5C 98.3333,48.8333 96.1667,49.1667 94,49.5C 85.28,49.2365 76.9466,49.2365 69,49.5C 68.0497,48.9777 67.2164,48.311 66.5,47.5C 65.4763,48.8532 64.143,49.5198 62.5,49.5C 62.1667,45.5 61.8333,45.5 61.5,49.5C 59.5,49.5 57.5,49.5 55.5,49.5C 55.1667,45.5 54.8333,45.5 54.5,49.5C 49.6509,49.022 44.6509,49.022 39.5,49.5C 39.5,48.1667 39.5,46.8333 39.5,45.5C 42.0593,45.8016 44.3926,45.4682 46.5,44.5 Z"/></g>
<g><path style="opacity:1" fill="#5d519a" d="M 141.5,45.5 C 142.5,45.5 143.5,45.5 144.5,45.5C 144.657,46.8734 144.49,48.2068 144,49.5C 143.333,48.1667 142.667,48.1667 142,49.5C 141.51,48.2068 141.343,46.8734 141.5,45.5 Z"/></g>
<g><path style="opacity:1" fill="#675aa0" d="M 168.5,46.5 C 168.804,47.1499 169.137,47.8165 169.5,48.5C 167.044,49.1529 164.71,49.4863 162.5,49.5C 162.33,48.1779 162.663,47.0113 163.5,46C 165.387,45.2204 167.054,45.3871 168.5,46.5 Z"/></g>
</svg>
