<?xml version="1.0" encoding="UTF-8"?>
<!DOCTYPE svg PUBLIC "-//W3C//DTD SVG 1.1//EN" "http://www.w3.org/Graphics/SVG/1.1/DTD/svg11.dtd">
<svg xmlns="http://www.w3.org/2000/svg" version="1.1" width="1845px" height="1400px" style="shape-rendering:geometricPrecision; text-rendering:geometricPrecision; image-rendering:optimizeQuality; fill-rule:evenodd; clip-rule:evenodd" xmlns:xlink="http://www.w3.org/1999/xlink">
<g><path style="opacity:1" fill="#fdfdfd" d="M -0.5,-0.5 C 614.5,-0.5 1229.5,-0.5 1844.5,-0.5C 1844.5,171.833 1844.5,344.167 1844.5,516.5C 1791.17,516.5 1737.83,516.5 1684.5,516.5C 1684.67,563.501 1684.5,610.501 1684,657.5C 1683.82,666.931 1681.82,675.931 1678,684.5C 1671.79,692.302 1663.62,695.969 1653.5,695.5C 1649.73,695.346 1646.06,694.679 1642.5,693.5C 1641.17,711.833 1641.17,730.167 1642.5,748.5C 1645.07,749.634 1647.74,750.468 1650.5,751C 1666.01,752.339 1681.34,751.339 1696.5,748C 1719.27,740.895 1733.44,725.728 1739,702.5C 1740.52,696.248 1741.52,689.914 1742,683.5C 1742.5,646.168 1742.67,608.835 1742.5,571.5C 1756.83,571.5 1771.17,571.5 1785.5,571.5C 1785.5,630.5 1785.5,689.5 1785.5,748.5C 1805.17,748.5 1824.83,748.5 1844.5,748.5C 1844.5,965.5 1844.5,1182.5 1844.5,1399.5C 1229.5,1399.5 614.5,1399.5 -0.5,1399.5C -0.5,1248.17 -0.5,1096.83 -0.5,945.5C 161.833,945.5 324.167,945.5 486.5,945.5C 486.833,783.332 486.5,621.332 485.5,459.5C 323.5,459.5 161.5,459.5 -0.5,459.5C -0.5,306.167 -0.5,152.833 -0.5,-0.5 Z"/></g>
<g><path style="opacity:1" fill="#1f1c20" d="M 1499.5,453.5 C 1507.1,472.105 1520.43,477.605 1539.5,470C 1545.17,466.655 1549.01,461.822 1551,455.5C 1551.56,454.978 1552.23,454.645 1553,454.5C 1563.99,458.883 1574.82,463.55 1585.5,468.5C 1574.62,490.173 1556.96,501.673 1532.5,503C 1513.25,505.155 1495.92,500.489 1480.5,489C 1474.07,483.401 1469.41,476.568 1466.5,468.5C 1477.48,463.291 1488.48,458.291 1499.5,453.5 Z"/></g>
<g><path style="opacity:1" fill="#e41e32" d="M -0.5,460.5 C 639.5,461.167 639.5,461.833 -0.5,462.5C -0.5,461.833 -0.5,461.167 -0.5,460.5 Z"/></g>
<g><path style="opacity:1" fill="#e41f39" d="M -0.5,460.5 C -0.5,460.167 -0.5,459.833 -0.5,459.5C 161.5,459.5 323.5,459.5 485.5,459.5C 485.5,460.167 485.5,460.833 485.5,461.5C 484.022,461.238 482.689,461.571 481.5,462.5C 482.499,622.793 482.832,783.126 482.5,943.5C 483.5,943.5 484.5,943.5 485.5,943.5C 323.668,944.5 161.668,944.833 -0.5,944.5C -0.5,783.833 -0.5,623.167 -0.5,462.5C 639.5,461.833 639.5,461.167 -0.5,460.5 Z"/></g>
<g><path style="opacity:1" fill="#e32032" d="M 485.5,461.5 C 485.5,622.167 485.5,782.833 485.5,943.5C 484.5,943.5 483.5,943.5 482.5,943.5C 482.832,783.126 482.499,622.793 481.5,462.5C 482.689,461.571 484.022,461.238 485.5,461.5 Z"/></g>
<g><path style="opacity:1" fill="#fdfcfc" d="M 383.5,825.5 C 383.672,824.508 383.338,823.842 382.5,823.5C 361.865,771.219 340.365,719.219 318,667.5C 313.473,652.136 315.139,637.47 323,623.5C 344.968,587.52 366.968,551.52 389,515.5C 396.332,508.122 405.166,505.622 415.5,508C 433.261,515.02 439.761,527.854 435,546.5C 416.588,576.991 397.921,607.325 379,637.5C 374.883,644.657 373.55,652.324 375,660.5C 403.232,733.96 431.732,807.294 460.5,880.5C 341.838,882.498 222.838,883.165 103.5,882.5C 81.8186,879.32 66.652,867.654 58,847.5C 56.3631,842.286 55.3631,836.953 55,831.5C 54.0792,731.167 53.7458,630.834 54,530.5C 58.8207,513.666 69.9874,506.166 87.5,508C 100.115,510.948 107.615,518.781 110,531.5C 110.333,625.167 110.667,718.833 111,812.5C 112.736,819.237 116.903,823.737 123.5,826C 210.334,826.832 297.001,826.666 383.5,825.5 Z"/></g>
<g><path style="opacity:1" fill="#fdfcfc" d="M 170.5,507.5 C 185.318,506.154 195.818,512.154 202,525.5C 203.314,595.803 203.98,666.136 204,736.5C 209.591,751.028 219.424,754.862 233.5,748C 235.333,746.167 237.167,744.333 239,742.5C 239.29,740.048 239.956,737.715 241,735.5C 241.01,665.109 241.676,594.776 243,524.5C 249.701,511.182 260.535,505.682 275.5,508C 286.743,510.91 293.576,518.077 296,529.5C 296.667,600.833 296.667,672.167 296,743.5C 289.403,779.764 267.903,800.93 231.5,807C 193.409,810.19 166.909,794.356 152,759.5C 151.206,755.45 150.206,751.45 149,747.5C 147.366,675.52 147.032,603.52 148,531.5C 150.564,518.772 158.064,510.772 170.5,507.5 Z"/></g>
<g><path style="opacity:1" fill="#1f1b20" d="M 1277.5,510.5 C 1343.12,511.957 1381.96,544.957 1394,609.5C 1398.42,640.952 1393.76,670.952 1380,699.5C 1358.12,737.287 1325.12,755.954 1281,755.5C 1231.46,754.917 1197.13,731.917 1178,686.5C 1163.37,644.802 1165.7,604.135 1185,564.5C 1205.86,529.647 1236.69,511.647 1277.5,510.5 Z"/></g>
<g><path style="opacity:1" fill="#1f1b20" d="M 582.5,516.5 C 635.833,516.5 689.167,516.5 742.5,516.5C 742.5,593.833 742.5,671.167 742.5,748.5C 722.833,748.5 703.167,748.5 683.5,748.5C 683.5,689.5 683.5,630.5 683.5,571.5C 669.167,571.5 654.833,571.5 640.5,571.5C 640.667,608.168 640.5,644.835 640,681.5C 636.986,729.346 611.486,752.679 563.5,751.5C 558.5,751.333 553.5,751.167 548.5,751C 545.648,750.731 542.982,749.897 540.5,748.5C 539.167,730.167 539.167,711.833 540.5,693.5C 563.798,699.78 577.298,691.114 581,667.5C 582.426,617.183 582.926,566.85 582.5,516.5 Z"/></g>
<g><path style="opacity:1" fill="#1f1b20" d="M 762.5,517.5 C 785.663,516.337 808.996,516.17 832.5,517C 845.462,547.761 858.296,578.594 871,609.5C 871.368,610.91 872.201,611.91 873.5,612.5C 885.214,581.03 896.547,549.363 907.5,517.5C 928.489,516.5 949.489,516.167 970.5,516.5C 939.832,593.664 908.665,670.664 877,747.5C 855.898,748.826 834.732,748.826 813.5,747.5C 823.038,726.258 832.705,705.092 842.5,684C 815.962,628.425 789.296,572.925 762.5,517.5 Z"/></g>
<g><path style="opacity:1" fill="#1f1b20" d="M 989.5,516.5 C 1009.17,516.5 1028.83,516.5 1048.5,516.5C 1048.33,548.835 1048.5,581.168 1049,613.5C 1070.08,581.671 1090.92,549.671 1111.5,517.5C 1135.16,516.334 1158.83,516.167 1182.5,517C 1169.79,534.256 1156.96,551.423 1144,568.5C 1129.82,588.677 1115.65,608.844 1101.5,629C 1128.7,668.57 1156.04,708.07 1183.5,747.5C 1158.5,748.833 1133.5,748.833 1108.5,747.5C 1088.92,714.667 1069.08,682 1049,649.5C 1048.5,682.498 1048.33,715.498 1048.5,748.5C 1028.83,748.5 1009.17,748.5 989.5,748.5C 989.5,671.167 989.5,593.833 989.5,516.5 Z"/></g>
<g><path style="opacity:1" fill="#1f1b20" d="M 1425.5,516.5 C 1444.5,516.5 1463.5,516.5 1482.5,516.5C 1482.33,562.501 1482.5,608.501 1483,654.5C 1510.17,608.667 1537.33,562.833 1564.5,517C 1583.5,516.5 1602.5,516.333 1621.5,516.5C 1621.5,593.833 1621.5,671.167 1621.5,748.5C 1602.5,748.5 1583.5,748.5 1564.5,748.5C 1564.67,702.499 1564.5,656.499 1564,610.5C 1536.71,656.251 1509.54,702.084 1482.5,748C 1463.5,748.5 1444.5,748.667 1425.5,748.5C 1425.5,671.167 1425.5,593.833 1425.5,516.5 Z"/></g>
<g><path style="opacity:1" fill="#1f1b20" d="M 1844.5,516.5 C 1844.5,593.833 1844.5,671.167 1844.5,748.5C 1824.83,748.5 1805.17,748.5 1785.5,748.5C 1785.5,689.5 1785.5,630.5 1785.5,571.5C 1771.17,571.5 1756.83,571.5 1742.5,571.5C 1742.67,608.835 1742.5,646.168 1742,683.5C 1741.52,689.914 1740.52,696.248 1739,702.5C 1733.44,725.728 1719.27,740.895 1696.5,748C 1681.34,751.339 1666.01,752.339 1650.5,751C 1647.74,750.468 1645.07,749.634 1642.5,748.5C 1641.17,730.167 1641.17,711.833 1642.5,693.5C 1646.06,694.679 1649.73,695.346 1653.5,695.5C 1663.62,695.969 1671.79,692.302 1678,684.5C 1681.82,675.931 1683.82,666.931 1684,657.5C 1684.5,610.501 1684.67,563.501 1684.5,516.5C 1737.83,516.5 1791.17,516.5 1844.5,516.5 Z"/></g>
<g><path style="opacity:1" fill="#fcfcfc" d="M 1271.5,566.5 C 1298.26,563.8 1317.43,574.467 1329,598.5C 1338.65,624.413 1337.32,649.747 1325,674.5C 1311.03,696.047 1291.53,703.881 1266.5,698C 1250.6,691.769 1239.77,680.602 1234,664.5C 1225.3,639.079 1226.97,614.413 1239,590.5C 1246.9,578.423 1257.73,570.423 1271.5,566.5 Z"/></g>
<g><path style="opacity:1" fill="#221e23" d="M 726.5,791.5 C 728.833,791.5 731.167,791.5 733.5,791.5C 733.5,794.833 733.5,798.167 733.5,801.5C 747.853,800.004 760.019,804.338 770,814.5C 779.102,829.799 777.935,844.299 766.5,858C 756.688,865.039 745.688,868.206 733.5,867.5C 733.5,871.167 733.5,874.833 733.5,878.5C 731.167,878.5 728.833,878.5 726.5,878.5C 726.5,874.833 726.5,871.167 726.5,867.5C 709.243,869.267 696.076,862.934 687,848.5C 680.224,816.424 693.391,800.757 726.5,801.5C 726.5,798.167 726.5,794.833 726.5,791.5 Z"/></g>
<g><path style="opacity:1" fill="#211e22" d="M 1277.5,792.5 C 1303.27,790.483 1320.43,801.483 1329,825.5C 1333.65,853.046 1322.82,871.213 1296.5,880C 1277.35,884.061 1261.18,878.894 1248,864.5C 1237.52,847.545 1236.86,830.211 1246,812.5C 1253.95,801.62 1264.45,794.954 1277.5,792.5 Z"/></g>
<g><path style="opacity:1" fill="#201d21" d="M 1766.5,792.5 C 1767.5,820.995 1767.83,849.662 1767.5,878.5C 1764.83,878.5 1762.17,878.5 1759.5,878.5C 1759.83,856.823 1759.5,835.156 1758.5,813.5C 1739.51,835.996 1720.67,858.663 1702,881.5C 1701.5,852.502 1701.33,823.502 1701.5,794.5C 1704.17,794.5 1706.83,794.5 1709.5,794.5C 1709.5,816.167 1709.5,837.833 1709.5,859.5C 1712.04,858.532 1714.21,856.865 1716,854.5C 1732.67,833.669 1749.5,813.002 1766.5,792.5 Z"/></g>
<g><path style="opacity:1" fill="#1f1b20" d="M 539.5,794.5 C 542.167,794.5 544.833,794.5 547.5,794.5C 547.5,806.167 547.5,817.833 547.5,829.5C 563.833,829.5 580.167,829.5 596.5,829.5C 596.5,817.833 596.5,806.167 596.5,794.5C 599.167,794.5 601.833,794.5 604.5,794.5C 604.5,822.5 604.5,850.5 604.5,878.5C 601.833,878.5 599.167,878.5 596.5,878.5C 596.5,864.167 596.5,849.833 596.5,835.5C 580.167,835.5 563.833,835.5 547.5,835.5C 547.5,849.833 547.5,864.167 547.5,878.5C 544.833,878.5 542.167,878.5 539.5,878.5C 539.5,850.5 539.5,822.5 539.5,794.5 Z"/></g>
<g><path style="opacity:1" fill="#1f1b20" d="M 669.5,834.5 C 657.5,834.5 645.5,834.5 633.5,834.5C 633.171,847.344 633.505,860.011 634.5,872.5C 646.833,872.5 659.167,872.5 671.5,872.5C 671.5,874.5 671.5,876.5 671.5,878.5C 656.5,878.5 641.5,878.5 626.5,878.5C 626.5,850.5 626.5,822.5 626.5,794.5C 641.5,794.5 656.5,794.5 671.5,794.5C 671.5,796.833 671.5,799.167 671.5,801.5C 658.833,801.5 646.167,801.5 633.5,801.5C 633.5,810.5 633.5,819.5 633.5,828.5C 645.5,828.5 657.5,828.5 669.5,828.5C 669.5,830.5 669.5,832.5 669.5,834.5 Z"/></g>
<g><path style="opacity:1" fill="#1f1c20" d="M 784.5,794.5 C 801.833,794.5 819.167,794.5 836.5,794.5C 836.5,796.833 836.5,799.167 836.5,801.5C 829.167,801.5 821.833,801.5 814.5,801.5C 814.5,827.167 814.5,852.833 814.5,878.5C 811.833,878.5 809.167,878.5 806.5,878.5C 806.5,852.833 806.5,827.167 806.5,801.5C 799.167,801.5 791.833,801.5 784.5,801.5C 784.5,799.167 784.5,796.833 784.5,794.5 Z"/></g>
<g><path style="opacity:1" fill="#201d21" d="M 868.5,794.5 C 876.833,794.5 885.167,794.5 893.5,794.5C 893.5,822.5 893.5,850.5 893.5,878.5C 890.833,878.5 888.167,878.5 885.5,878.5C 885.5,866.167 885.5,853.833 885.5,841.5C 882.315,841.02 879.481,841.686 877,843.5C 870.365,854.965 863.532,866.298 856.5,877.5C 853.5,878.833 850.5,878.833 847.5,877.5C 854.708,865.583 862.041,853.75 869.5,842C 847.467,838.438 840.634,826.271 849,805.5C 854.068,799.055 860.568,795.388 868.5,794.5 Z"/></g>
<g><path style="opacity:1" fill="#1f1b20" d="M 915.5,794.5 C 918.167,794.5 920.833,794.5 923.5,794.5C 923.5,806.167 923.5,817.833 923.5,829.5C 939.833,829.5 956.167,829.5 972.5,829.5C 972.5,817.833 972.5,806.167 972.5,794.5C 974.833,794.5 977.167,794.5 979.5,794.5C 979.5,822.5 979.5,850.5 979.5,878.5C 977.167,878.5 974.833,878.5 972.5,878.5C 972.5,864.167 972.5,849.833 972.5,835.5C 956.167,835.5 939.833,835.5 923.5,835.5C 923.5,849.833 923.5,864.167 923.5,878.5C 920.833,878.5 918.167,878.5 915.5,878.5C 915.5,850.5 915.5,822.5 915.5,794.5 Z"/></g>
<g><path style="opacity:1" fill="#221f23" d="M 1029.5,792.5 C 1041.99,820.984 1054.65,849.484 1067.5,878C 1064.57,878.777 1061.74,878.61 1059,877.5C 1055.5,869.167 1052,860.833 1048.5,852.5C 1036.18,851.501 1023.85,851.168 1011.5,851.5C 1008.3,860.248 1004.8,868.915 1001,877.5C 998.263,878.61 995.429,878.777 992.5,878C 1005.32,849.699 1017.65,821.199 1029.5,792.5 Z"/></g>
<g><path style="opacity:1" fill="#201d21" d="M 1099.5,794.5 C 1107.83,794.5 1116.17,794.5 1124.5,794.5C 1124.5,822.5 1124.5,850.5 1124.5,878.5C 1121.83,878.5 1119.17,878.5 1116.5,878.5C 1116.5,866.167 1116.5,853.833 1116.5,841.5C 1113.75,841.187 1111.09,841.52 1108.5,842.5C 1101.75,854.332 1094.75,865.999 1087.5,877.5C 1084.5,878.833 1081.5,878.833 1078.5,877.5C 1085.71,865.583 1093.04,853.75 1100.5,842C 1081.96,840.076 1074.12,829.909 1077,811.5C 1081.23,801.427 1088.73,795.76 1099.5,794.5 Z"/></g>
<g><path style="opacity:1" fill="#211d21" d="M 1174.5,794.5 C 1177.17,794.5 1179.83,794.5 1182.5,794.5C 1182.33,807.504 1182.5,820.504 1183,833.5C 1195.19,820.64 1207.36,807.807 1219.5,795C 1222.83,794.333 1226.17,794.333 1229.5,795C 1215.95,808.045 1202.95,821.545 1190.5,835.5C 1203.5,849.5 1216.5,863.5 1229.5,877.5C 1226.22,878.657 1222.88,878.824 1219.5,878C 1206.98,865.118 1194.82,851.952 1183,838.5C 1182.5,851.829 1182.33,865.163 1182.5,878.5C 1179.83,878.5 1177.17,878.5 1174.5,878.5C 1174.5,850.5 1174.5,822.5 1174.5,794.5 Z"/></g>
<g><path style="opacity:1" fill="#211e22" d="M 1353.5,792.5 C 1365.35,816.714 1377.02,841.047 1388.5,865.5C 1400.5,841.504 1412,817.171 1423,792.5C 1427.74,821.018 1431.58,849.685 1434.5,878.5C 1432.17,878.5 1429.83,878.5 1427.5,878.5C 1425.49,858.411 1422.82,838.411 1419.5,818.5C 1408.84,839.16 1398.67,860.16 1389,881.5C 1378.68,860.198 1368.35,838.864 1358,817.5C 1354.69,837.742 1351.86,858.075 1349.5,878.5C 1347.17,878.5 1344.83,878.5 1342.5,878.5C 1345.84,849.789 1349.51,821.122 1353.5,792.5 Z"/></g>
<g><path style="opacity:1" fill="#1f1b20" d="M 1451.5,794.5 C 1472.83,794.5 1494.17,794.5 1515.5,794.5C 1515.5,822.5 1515.5,850.5 1515.5,878.5C 1512.83,878.5 1510.17,878.5 1507.5,878.5C 1507.5,852.833 1507.5,827.167 1507.5,801.5C 1491.17,801.5 1474.83,801.5 1458.5,801.5C 1458.5,827.167 1458.5,852.833 1458.5,878.5C 1456.17,878.5 1453.83,878.5 1451.5,878.5C 1451.5,850.5 1451.5,822.5 1451.5,794.5 Z"/></g>
<g><path style="opacity:1" fill="#1f1b20" d="M 1615.5,794.5 C 1618.17,794.5 1620.83,794.5 1623.5,794.5C 1623.5,806.167 1623.5,817.833 1623.5,829.5C 1639.83,829.5 1656.17,829.5 1672.5,829.5C 1672.5,817.833 1672.5,806.167 1672.5,794.5C 1675.17,794.5 1677.83,794.5 1680.5,794.5C 1680.5,822.5 1680.5,850.5 1680.5,878.5C 1677.83,878.5 1675.17,878.5 1672.5,878.5C 1672.5,864.167 1672.5,849.833 1672.5,835.5C 1656.17,835.5 1639.83,835.5 1623.5,835.5C 1623.5,849.833 1623.5,864.167 1623.5,878.5C 1620.83,878.5 1618.17,878.5 1615.5,878.5C 1615.5,850.5 1615.5,822.5 1615.5,794.5 Z"/></g>
<g><path style="opacity:1" fill="#201d21" d="M 1807.5,794.5 C 1816.17,794.5 1824.83,794.5 1833.5,794.5C 1833.5,822.5 1833.5,850.5 1833.5,878.5C 1830.83,878.5 1828.17,878.5 1825.5,878.5C 1825.5,866.167 1825.5,853.833 1825.5,841.5C 1822.75,841.187 1820.09,841.52 1817.5,842.5C 1810.75,854.332 1803.75,865.999 1796.5,877.5C 1793.5,878.833 1790.5,878.833 1787.5,877.5C 1794.75,865.999 1801.75,854.332 1808.5,842.5C 1800.86,841.346 1794.36,838.012 1789,832.5C 1780.54,812.426 1786.71,799.759 1807.5,794.5 Z"/></g>
<g><path style="opacity:1" fill="#231f24" d="M 1565.5,793.5 C 1578.26,821.533 1590.93,849.699 1603.5,878C 1600.57,878.777 1597.74,878.61 1595,877.5C 1591,868.997 1587.5,860.331 1584.5,851.5C 1572.15,851.168 1559.82,851.501 1547.5,852.5C 1544.11,860.951 1540.44,869.284 1536.5,877.5C 1533.89,878.652 1531.23,878.818 1528.5,878C 1540.74,849.78 1553.07,821.613 1565.5,793.5 Z"/></g>
<g><path style="opacity:1" fill="#fcfcfc" d="M 1279.5,798.5 C 1308.82,799.318 1322.65,814.318 1321,843.5C 1317.53,860.306 1307.36,870.473 1290.5,874C 1266.94,876.101 1252.77,865.601 1248,842.5C 1246.51,819.108 1257.01,804.441 1279.5,798.5 Z"/></g>
<g><path style="opacity:1" fill="#fbfbfb" d="M 865.5,801.5 C 872.167,801.5 878.833,801.5 885.5,801.5C 885.5,812.833 885.5,824.167 885.5,835.5C 876.527,836.299 867.86,835.132 859.5,832C 853.417,825.52 851.917,818.02 855,809.5C 857.831,805.821 861.331,803.154 865.5,801.5 Z"/></g>
<g><path style="opacity:1" fill="#fafafa" d="M 1097.5,801.5 C 1103.83,801.5 1110.17,801.5 1116.5,801.5C 1116.5,812.833 1116.5,824.167 1116.5,835.5C 1109.1,835.8 1101.77,835.3 1094.5,834C 1085.21,829.243 1082.05,821.743 1085,811.5C 1087.8,806.364 1091.96,803.031 1097.5,801.5 Z"/></g>
<g><path style="opacity:1" fill="#fafafb" d="M 1805.5,801.5 C 1812.17,801.5 1818.83,801.5 1825.5,801.5C 1825.5,812.833 1825.5,824.167 1825.5,835.5C 1818.1,835.8 1810.77,835.3 1803.5,834C 1794.15,829.313 1790.98,821.813 1794,811.5C 1796.57,806.645 1800.4,803.311 1805.5,801.5 Z"/></g>
<g><path style="opacity:1" fill="#fbfbfb" d="M 721.5,808.5 C 722.833,808.5 724.167,808.5 725.5,808.5C 725.5,825.833 725.5,843.167 725.5,860.5C 696.277,859.698 686.777,845.698 697,818.5C 703.654,811.557 711.821,808.224 721.5,808.5 Z"/></g>
<g><path style="opacity:1" fill="#fbfbfb" d="M 734.5,808.5 C 760.438,807.926 770.938,820.259 766,845.5C 761.268,854.459 753.768,859.292 743.5,860C 740.518,860.498 737.518,860.665 734.5,860.5C 734.5,843.167 734.5,825.833 734.5,808.5 Z"/></g>
<g><path style="opacity:1" fill="#f9f9f9" d="M 1029.5,811.5 C 1034.98,821.804 1039.98,832.471 1044.5,843.5C 1034.85,844.665 1025.18,844.832 1015.5,844C 1020.04,833.098 1024.7,822.264 1029.5,811.5 Z"/></g>
<g><path style="opacity:1" fill="#f9f9f9" d="M 1564.5,811.5 C 1566.69,812.823 1568.19,814.823 1569,817.5C 1572.7,826.407 1576.54,835.24 1580.5,844C 1570.82,844.832 1561.15,844.665 1551.5,843.5C 1556.41,833.028 1560.74,822.362 1564.5,811.5 Z"/></g>
<g><path style="opacity:1" fill="#b6b7b7" d="M 721.5,808.5 C 722.919,807.549 724.585,807.216 726.5,807.5C 726.83,825.341 726.497,843.008 725.5,860.5C 725.5,843.167 725.5,825.833 725.5,808.5C 724.167,808.5 722.833,808.5 721.5,808.5 Z"/></g>
<g><path style="opacity:1" fill="#e42032" d="M 382.5,823.5 C 383.338,823.842 383.672,824.508 383.5,825.5C 297.164,825.833 210.831,825.5 124.5,824.5C 208.735,823.832 292.901,823.165 377,822.5C 378.699,823.406 380.533,823.739 382.5,823.5 Z"/></g>
<g><path style="opacity:1" fill="#abacac" d="M 669.5,834.5 C 658.012,835.495 646.345,835.828 634.5,835.5C 634.5,847.833 634.5,860.167 634.5,872.5C 633.505,860.011 633.171,847.344 633.5,834.5C 645.5,834.5 657.5,834.5 669.5,834.5 Z"/></g>
<g><path style="opacity:1" fill="#f6c6cd" d="M 460.5,880.5 C 461.404,881.209 461.737,882.209 461.5,883.5C 341.999,883.833 222.666,883.5 103.5,882.5C 222.838,883.165 341.838,882.498 460.5,880.5 Z"/></g>
<g><path style="opacity:1" fill="#e9516d" d="M 485.5,459.5 C 486.5,621.332 486.833,783.332 486.5,945.5C 324.167,945.5 161.833,945.5 -0.5,945.5C -0.5,945.167 -0.5,944.833 -0.5,944.5C 161.668,944.833 323.668,944.5 485.5,943.5C 485.5,782.833 485.5,622.167 485.5,461.5C 485.5,460.833 485.5,460.167 485.5,459.5 Z"/></g>
</svg>
