<?xml version="1.0" encoding="UTF-8"?>
<!DOCTYPE svg PUBLIC "-//W3C//DTD SVG 1.1//EN" "http://www.w3.org/Graphics/SVG/1.1/DTD/svg11.dtd">
<svg xmlns="http://www.w3.org/2000/svg" version="1.1" width="600px" height="600px" style="shape-rendering:geometricPrecision; text-rendering:geometricPrecision; image-rendering:optimizeQuality; fill-rule:evenodd; clip-rule:evenodd" xmlns:xlink="http://www.w3.org/1999/xlink">
<g><path style="opacity:1" fill="#fdfdfd" d="M -0.5,-0.5 C 199.5,-0.5 399.5,-0.5 599.5,-0.5C 599.5,199.5 599.5,399.5 599.5,599.5C 399.5,599.5 199.5,599.5 -0.5,599.5C -0.5,399.5 -0.5,199.5 -0.5,-0.5 Z"/></g>
<g><path style="opacity:1" fill="#3f3587" d="M 59.5,281.5 C 69.1667,282.167 78.8333,282.833 88.5,283.5C 79.1431,294.845 69.3098,305.845 59,316.5C 58.5014,320.152 58.3347,323.818 58.5,327.5C 64.5,327.5 70.5,327.5 76.5,327.5C 76.5,330.833 76.5,334.167 76.5,337.5C 65.1667,337.5 53.8333,337.5 42.5,337.5C 42.5,312.167 42.5,286.833 42.5,261.5C 53.8333,261.5 65.1667,261.5 76.5,261.5C 76.5,264.833 76.5,268.167 76.5,271.5C 70.8333,271.5 65.1667,271.5 59.5,271.5C 59.5,274.833 59.5,278.167 59.5,281.5 Z"/></g>
<g><path style="opacity:1" fill="#3f3487" d="M 87.5,261.5 C 98.8333,261.5 110.167,261.5 121.5,261.5C 121.5,286.833 121.5,312.167 121.5,337.5C 110.167,337.5 98.8333,337.5 87.5,337.5C 87.5,334.167 87.5,330.833 87.5,327.5C 93.5,327.5 99.5,327.5 105.5,327.5C 105.5,323.833 105.5,320.167 105.5,316.5C 95.1613,316.666 84.828,316.5 74.5,316C 84.6667,304.5 94.8333,293 105,281.5C 105.498,278.183 105.665,274.85 105.5,271.5C 99.5,271.5 93.5,271.5 87.5,271.5C 87.5,268.167 87.5,264.833 87.5,261.5 Z"/></g>
<g><path style="opacity:1" fill="#3d3386" d="M 166.5,318.5 C 165.957,318.56 165.624,318.893 165.5,319.5C 177.148,320.499 188.814,320.832 200.5,320.5C 200.5,322.167 200.5,323.833 200.5,325.5C 185.833,325.5 171.167,325.5 156.5,325.5C 156.34,323.801 156.506,322.134 157,320.5C 168.378,307.294 179.544,293.96 190.5,280.5C 191.043,280.44 191.376,280.107 191.5,279.5C 180.186,278.501 168.853,278.168 157.5,278.5C 157.5,276.833 157.5,275.167 157.5,273.5C 171.833,273.5 186.167,273.5 200.5,273.5C 200.66,275.199 200.494,276.866 200,278.5C 188.622,291.706 177.456,305.04 166.5,318.5 Z"/></g>
<g><path style="opacity:1" fill="#42388a" d="M 228.5,272.5 C 254.676,270.837 266.176,282.837 263,308.5C 255.112,324.032 242.612,329.532 225.5,325C 209.86,317.271 204.694,305.104 210,288.5C 214.217,280.774 220.384,275.441 228.5,272.5 Z"/></g>
<g><path style="opacity:1" fill="#413789" d="M 296.5,272.5 C 324.062,271.878 334.896,284.878 329,311.5C 323.001,321.671 314.001,326.671 302,326.5C 282.279,323.756 273.612,312.422 276,292.5C 279.419,282.247 286.252,275.58 296.5,272.5 Z"/></g>
<g><path style="opacity:1" fill="#443a8b" d="M 344.5,273.5 C 352.84,273.334 361.173,273.5 369.5,274C 388.702,277.91 396.202,289.41 392,308.5C 388.03,318.134 380.863,323.634 370.5,325C 361.84,325.5 353.173,325.666 344.5,325.5C 344.5,308.167 344.5,290.833 344.5,273.5 Z"/></g>
<g><path style="opacity:1" fill="#3e3487" d="M 403.5,273.5 C 414.172,273.333 424.839,273.5 435.5,274C 447.033,277.24 451.866,284.74 450,296.5C 447.883,303.825 443.049,308.325 435.5,310C 430.177,310.499 424.844,310.666 419.5,310.5C 419.5,315.5 419.5,320.5 419.5,325.5C 414.167,325.5 408.833,325.5 403.5,325.5C 403.5,308.167 403.5,290.833 403.5,273.5 Z"/></g>
<g><path style="opacity:1" fill="#3e3386" d="M 508.5,324.5 C 503.36,325.488 498.026,325.821 492.5,325.5C 491.582,322.497 490.249,319.663 488.5,317C 481.174,316.5 473.841,316.334 466.5,316.5C 466.076,319.354 465.076,322.021 463.5,324.5C 458.167,325.833 452.833,325.833 447.5,324.5C 455.267,307.692 462.934,290.858 470.5,274C 475.823,273.501 481.156,273.334 486.5,273.5C 493.554,290.61 500.888,307.61 508.5,324.5 Z"/></g>
<g><path style="opacity:1" fill="#3e3386" d="M 501.5,273.5 C 507.176,273.334 512.843,273.501 518.5,274C 521.791,280.086 525.458,285.919 529.5,291.5C 533.416,286.004 537.082,280.337 540.5,274.5C 546.167,273.167 551.833,273.167 557.5,274.5C 551.197,284.635 544.697,294.635 538,304.5C 537.5,311.492 537.334,318.492 537.5,325.5C 532.167,325.5 526.833,325.5 521.5,325.5C 521.666,318.825 521.5,312.158 521,305.5C 514.227,294.944 507.727,284.278 501.5,273.5 Z"/></g>
<g><path style="opacity:1" fill="#b9badc" d="M 157.5,278.5 C 168.853,278.168 180.186,278.501 191.5,279.5C 191.376,280.107 191.043,280.44 190.5,280.5C 179.5,279.833 168.5,279.167 157.5,278.5 Z"/></g>
<g><path style="opacity:1" fill="#fbfbfc" d="M 229.5,278.5 C 250.003,276.836 259.17,286.169 257,306.5C 250.583,319.425 240.417,323.591 226.5,319C 213.013,309.448 211.013,297.948 220.5,284.5C 223.084,281.72 226.084,279.72 229.5,278.5 Z"/></g>
<g><path style="opacity:1" fill="#fbfbfc" d="M 296.5,278.5 C 317.636,277.131 326.803,286.797 324,307.5C 315.858,320.989 304.691,324.155 290.5,317C 280.847,308.645 279.013,298.812 285,287.5C 288.161,283.491 291.994,280.491 296.5,278.5 Z"/></g>
<g><path style="opacity:1" fill="#fbfbfc" d="M 351.5,279.5 C 358.508,279.334 365.508,279.5 372.5,280C 385.526,285.556 389.693,295.056 385,308.5C 381.459,315.027 375.959,318.86 368.5,320C 362.843,320.499 357.176,320.666 351.5,320.5C 351.5,306.833 351.5,293.167 351.5,279.5 Z"/></g>
<g><path style="opacity:1" fill="#cacadf" d="M 59.5,281.5 C 69.5222,281.168 79.5222,281.501 89.5,282.5C 89.3764,283.107 89.0431,283.44 88.5,283.5C 78.8333,282.833 69.1667,282.167 59.5,281.5 Z"/></g>
<g><path style="opacity:1" fill="#f7f7fa" d="M 419.5,285.5 C 423.936,285.21 428.27,285.71 432.5,287C 436.5,290.667 436.5,294.333 432.5,298C 428.27,299.29 423.936,299.79 419.5,299.5C 419.5,294.833 419.5,290.167 419.5,285.5 Z"/></g>
<g><path style="opacity:1" fill="#f6f5f9" d="M 477.5,291.5 C 479.981,295.129 481.981,299.129 483.5,303.5C 479.893,304.489 476.226,304.823 472.5,304.5C 473.885,300.062 475.552,295.729 477.5,291.5 Z"/></g>
<g><path style="opacity:1" fill="#cacae7" d="M 166.5,318.5 C 177.833,319.167 189.167,319.833 200.5,320.5C 188.814,320.832 177.148,320.499 165.5,319.5C 165.624,318.893 165.957,318.56 166.5,318.5 Z"/></g>
<g><path style="opacity:1" fill="#c9c8e5" d="M 508.5,324.5 C 509.043,324.56 509.376,324.893 509.5,325.5C 503.68,326.816 498.013,326.816 492.5,325.5C 498.026,325.821 503.36,325.488 508.5,324.5 Z"/></g>
</svg>
