<svg xmlns="http://www.w3.org/2000/svg" xmlns:xlink="http://www.w3.org/1999/xlink" xmlns:xodm="http://www.corel.com/coreldraw/odm/2003" xml:space="preserve" version="1.1" style="shape-rendering:geometricPrecision; text-rendering:geometricPrecision; image-rendering:optimizeQuality; fill-rule:evenodd; clip-rule:evenodd" viewBox="6843.57 7583.43 16827.48 3765.3">
 <defs>
  <style type="text/css">
   <![CDATA[
    .fil3 {fill:#2B2A29}
    .fil2 {fill:#0C54A0}
    .fil0 {fill:#2B2A29;fill-rule:nonzero}
    .fil1 {fill:#0C54A0;fill-rule:nonzero}
   ]]>
  </style>
 </defs>
 <g id="Слой_x0020_1">
  <metadata id="CorelCorpID_0Corel-Layer"/>
  <g id="_2259433171344">
   <path class="fil0" d="M11628.82 10725.68l-98.91 87.19c-34.65,-48.14 -69.96,-72.22 -105.91,-72.22 -17.57,0 -31.87,4.71 -42.94,13.98 -11.23,9.45 -16.75,20.02 -16.75,31.72 0,11.72 3.9,22.95 11.87,33.35 10.9,13.99 43.6,43.92 98.09,89.96 50.92,42.62 81.84,69.47 92.73,80.54 27,27.32 46.2,53.34 57.58,78.24 11.22,25.05 16.92,52.22 16.92,81.66 0,57.59 -19.85,104.92 -59.7,142.51 -39.69,37.4 -91.58,56.12 -155.68,56.12 -49.94,0 -93.38,-12.2 -130.46,-36.6 -37.09,-24.57 -68.98,-62.96 -95.33,-115.34l112.41 -67.68c33.82,61.82 72.71,92.73 116.63,92.73 22.95,0 42.3,-6.67 57.92,-20.02 15.62,-13.32 23.42,-28.79 23.42,-46.19 0,-15.78 -5.85,-31.72 -17.72,-47.67 -11.72,-15.77 -37.75,-40.17 -77.94,-72.87 -76.44,-62.14 -125.73,-110.13 -148.03,-143.98 -22.28,-33.82 -33.5,-67.49 -33.5,-101.18 0,-48.63 18.53,-90.27 55.47,-124.94 37.08,-34.8 82.79,-52.21 137.13,-52.21 34.98,0 68.32,8.14 99.89,24.24 31.72,16.27 65.87,45.72 102.81,88.66zm976.55 -95.33l132.75 0 0 700.81 -132.75 0 0 -700.81zm1130.63 0l126.56 0 301.94 461.19 0 -461.19 132.73 0 0 700.81 -127.53 0 -300.96 -459.72 0 459.72 -132.74 0 0 -700.81zm2211.93 122.98l-93.53 88.82c-63.62,-67.02 -135.03,-100.52 -214.58,-100.52 -67.01,0 -123.63,22.92 -169.5,68.64 -46.04,45.72 -68.97,101.99 -68.97,169.03 0,46.67 10.25,88.16 30.58,124.28 20.34,36.27 49.12,64.74 86.21,85.4 37.25,20.66 78.57,30.91 124.13,30.91 38.72,0 74.17,-7.17 106.22,-21.64 32.21,-14.48 67.51,-40.82 105.91,-78.89l90.61 94.66c-51.74,50.6 -100.71,85.74 -146.73,105.26 -46.05,19.68 -98.76,29.45 -157.81,29.45 -108.98,0 -198.3,-34.5 -267.76,-103.64 -69.47,-68.96 -104.11,-157.63 -104.11,-265.47 0,-69.96 15.77,-131.93 47.49,-186.27 31.57,-54.34 76.79,-97.94 135.84,-130.96 58.89,-33.02 122.33,-49.61 190.49,-49.61 57.75,0 113.39,12.19 167.08,36.61 53.52,24.4 99.71,59.05 138.43,103.94zm964.69 -122.98l382.61 0 0 130.8 -249.87 0 0 125.91 249.87 0 0 128.83 -249.87 0 0 184.48 249.87 0 0 130.79 -382.61 0 0 -700.81zm1989.39 226.44l-129.81 0c3.57,-75.79 27.17,-135.33 71.24,-178.78 43.92,-43.44 100.38,-65.23 169.35,-65.23 42.62,0 80.2,8.94 112.74,27.01 32.54,17.9 58.56,43.75 78.09,77.59 19.52,33.85 29.27,68.32 29.27,103.29 0,41.65 -11.87,86.39 -35.47,134.38 -23.75,48 -67.17,104.76 -130.13,170.16l-78.57 82.96 250.02 0 0 122.99 -486.06 0 0 -63.77 216.84 -221.07c52.37,-53.04 87.36,-95.66 104.59,-127.86 17.42,-32.22 26.04,-61.34 26.04,-87.37 0,-27 -8.94,-49.29 -26.84,-67.01 -18.05,-17.58 -41.17,-26.37 -69.29,-26.37 -28.65,0 -52.39,10.74 -71.59,32.05 -19.03,21.31 -29.12,50.44 -30.42,87.03zm1494.69 -244.01c51.07,0 95.17,12.54 132.09,37.59 37.09,25.2 65.56,63.44 85.73,115.01 20.18,51.72 30.25,123.46 30.25,215.54 0,93.04 -10.24,165.44 -30.74,217.33 -20.5,51.74 -47.99,89.79 -82.64,114.03 -34.49,24.25 -78.24,36.45 -130.96,36.45 -52.7,0 -96.94,-12.2 -132.73,-36.6 -35.95,-24.57 -64.1,-61.66 -84.44,-111.61 -20.33,-49.77 -30.42,-120.7 -30.42,-212.94 0,-128.51 19.85,-221.73 59.54,-279.47 44.09,-63.61 105.58,-95.33 184.32,-95.33zm4.06 126.9c-22.45,0 -42.3,7.15 -59.7,21.62 -17.4,14.32 -30.59,39.2 -39.86,74.34 -9.11,35.15 -13.66,86.55 -13.66,154.38 0,88.34 10.58,149.51 31.55,183.18 21,33.67 48.17,50.59 81.67,50.59 32.21,0 57.76,-15.94 76.61,-47.99 23.12,-38.72 34.67,-103.29 34.67,-193.9 0,-91.76 -10.42,-155.2 -31.07,-190 -20.67,-34.82 -47.35,-52.22 -80.21,-52.22zm1389.28 -126.9c51.07,0 95.16,12.54 132.09,37.59 37.09,25.2 65.56,63.44 85.73,115.01 20.17,51.72 30.25,123.46 30.25,215.54 0,93.04 -10.25,165.44 -30.74,217.33 -20.5,51.74 -48,89.79 -82.64,114.03 -34.5,24.25 -78.25,36.45 -130.96,36.45 -52.7,0 -96.94,-12.2 -132.74,-36.6 -35.94,-24.57 -64.09,-61.66 -84.43,-111.61 -20.33,-49.77 -30.42,-120.7 -30.42,-212.94 0,-128.51 19.84,-221.73 59.54,-279.47 44.09,-63.61 105.58,-95.33 184.32,-95.33zm4.05 126.9c-22.44,0 -42.29,7.15 -59.69,21.62 -17.4,14.32 -30.59,39.2 -39.87,74.34 -9.1,35.15 -13.65,86.55 -13.65,154.38 0,88.34 10.57,149.51 31.55,183.18 20.99,33.67 48.16,50.59 81.66,50.59 32.22,0 57.77,-15.94 76.62,-47.99 23.12,-38.72 34.66,-103.29 34.66,-193.9 0,-91.76 -10.41,-155.2 -31.07,-190 -20.66,-34.82 -47.34,-52.22 -80.21,-52.22zm1381.79 609.05l-113.38 -56.29 121.85 -238.48c-59.39,0 -109.81,-21.32 -151.3,-63.76 -41.47,-42.47 -62.29,-95.34 -62.29,-158.46 0,-61.33 21.3,-113.06 64.09,-155.35 42.77,-42.47 94.34,-63.61 154.86,-63.61 63.29,0 115.98,21.96 158.12,65.88 42.14,43.92 63.12,94.52 63.12,151.61 0,21.65 -3.25,43.27 -9.75,65.09 -6.52,21.62 -21.65,55.3 -45.07,100.69l-180.25 352.68zm16.6 -420.68c24.72,0 45.54,-9.12 62.47,-27.17 16.75,-18.06 25.22,-40.34 25.22,-67.01 0,-27.35 -8.8,-50.12 -26.52,-68.49 -17.58,-18.4 -38.07,-27.67 -61.67,-27.67 -24.72,0 -46.02,9.12 -63.77,27.34 -17.72,18.22 -26.67,41 -26.67,68.32 0,27 8.62,49.45 26.02,67.51 17.25,18.05 38.89,27.17 64.92,27.17z"/>
   <g>
    <polygon class="fil1" points="13360.71,10208.61 12818.55,10208.61 12818.55,8845.1 12501.33,10208.61 12081.87,10208.61 11718.46,8845.1 11718.46,10208.61 11243.58,10208.61 11243.58,7779.96 12025.8,7779.96 12304.14,9039.96 12546.17,7779.96 13360.71,7779.96 "/>
    <path class="fil1" d="M15220.02 10208.61l-619.09 0 -104.54 -652.27 -275.16 0 -105.87 652.27 -619.11 0 464.01 -2428.65 795.1 0 464.66 2428.65zm-773.54 -988.81l-89.02 -725.12 -84.97 725.12 173.99 0z"/>
    <path class="fil1" d="M16846 10212.09l-610.23 0c-65.74,-68.82 -98.93,-264.26 -98.93,-586.35l0 -3.47 3.32 -145.73c3.32,-202.39 4.65,-305.32 4.65,-309.94 0,-82.69 -62.41,-123.75 -187.26,-123.75l0 1165.76 -613.52 0 0 -2428.65 756.3 0c172.63,0 322.7,34.68 450.19,103.49 128.15,68.82 191.88,177.53 191.88,326.15l0 291.42c0,188.52 -126.15,315.74 -379.15,382.23 253,52.05 379.15,186.21 379.15,401.89l-7.96 266c0,388.58 37.18,608.9 111.56,660.95zm-701.19 -1593.1l0 -399.57c0,-85 -62.41,-127.21 -187.26,-127.21l0 655.74c124.85,0 187.26,-42.79 187.26,-128.96z"/>
    <path class="fil1" d="M17523.33 9313.47l0 895.14 -547.98 0 0 -2428.65 590.59 0c233.8,0 407.92,28.33 521.19,84.42 113.85,56.66 170.46,171.74 170.46,345.8l0 673.07c0,159.6 -46.26,271.79 -138.81,337.71 -93.16,66.49 -291.03,97.15 -595.45,92.51zm186.29 -475.32l0 -582.87c0,-85.58 -62.09,-128.37 -186.29,-128.37l0 839.61c124.2,0 186.29,-42.79 186.29,-128.37z"/>
    <polygon class="fil1" points="19400.22,10208.61 18360.56,10208.61 18360.56,7779.96 18916.48,7779.96 18916.48,9896.36 19400.22,9896.36 "/>
    <path class="fil1" d="M21144.07 9234.84l499.67 0 0 557.43c0,55.52 34.49,83.27 103.49,83.27 66.63,0 99.94,-27.75 99.94,-82.69l0 -287.39c0,-87.89 -60.69,-191.41 -181.45,-309.94 -233.77,-219.74 -378.91,-367.77 -436.02,-442.95 -57.09,-75.75 -85.63,-158.44 -85.63,-249.22l0 -272.37c0,-314.56 212.34,-471.85 636.47,-471.85 380.13,0 569.87,143.42 569.87,430.23l0 420.38 -499.68 0 0 -445.25c0,-48 -27.94,-72.28 -83.87,-72.28 -65.43,0 -98.16,45.68 -98.16,137.04l10.73 157.86c0,90.22 61.86,194.88 185.57,314.57 229.62,213.38 375.96,361.99 438.43,446.41 62.45,85 93.38,180.42 93.38,287.97l0 309.38c0,322.65 -212.38,483.99 -637.67,483.99 -409.88,0 -615.07,-146.88 -615.07,-440.64l0 -553.95z"/>
    <polygon class="fil1" points="23671.05,8095.68 23364.12,8095.68 23364.12,10208.61 22814.48,10208.61 22814.48,8095.68 22507.53,8095.68 22507.53,7779.96 23671.05,7779.96 "/>
    <path class="fil1" d="M21023.02 10208.61l-556.19 0 -93.91 -652.27 -247.18 0 -95.11 652.27 -556.19 0 416.84 -2428.65 714.28 0 417.46 2428.65zm-694.93 -988.81l-79.97 -725.12 -76.32 725.12 156.29 0z"/>
   </g>
   <g>
    <path class="fil2" d="M8343.76 7583.43l1527.23 525.84 -663.81 946.39 -256.44 -267.82c-657.7,58.16 -1013.16,537.02 -1007.39,1012.35 5.81,479.7 436.38,955.14 1074.87,953.36 691.44,-1.95 1023.87,-637.47 1015.95,-953.36 -8.61,-344.77 -105.51,-433.29 -220.84,-638.85l559.52 -299.79c75.26,204.76 161.14,365.04 136.32,850.32 -30.48,596.05 -640.15,1564.16 -1774.51,1563.44 -1311.62,-0.83 -1892.39,-981.39 -1891.09,-1772.17 1.45,-888.18 787.24,-1523.97 1574.78,-1594.32l-74.59 -325.39z"/>
    <path class="fil3" d="M8301.14 9684.09c69.38,-251.07 267.21,-448.91 518.32,-518.29 -41.97,40.07 -79.78,92.55 -112.09,154.9 -27.69,53.4 -51.44,114.26 -70.4,180.88 -66.62,18.96 -127.48,42.74 -180.89,70.4 -62.39,32.34 -114.87,70.14 -154.94,112.11z"/>
    <path class="fil3" d="M8274.96 9852.67l0.02 -0.86c14.77,-86.92 91.63,-166.4 208.37,-226.91 41.07,-21.27 86.88,-40.12 136.56,-56.04 -19.61,87.66 -31.28,183.39 -33.22,283.81l-311.73 0z"/>
    <path class="fil3" d="M8274.98 9913.13l-0.02 -0.81 311.73 0c1.94,100.4 13.61,196.13 33.22,283.79 -49.7,-15.95 -95.54,-34.75 -136.58,-56.04 -116.75,-60.49 -193.58,-140.01 -208.35,-226.94z"/>
    <path class="fil3" d="M8819.46 10599.17c-251.11,-69.41 -448.92,-267.22 -518.32,-518.32 40.07,41.99 92.55,79.82 154.92,112.14 53.4,27.68 114.29,51.43 180.91,70.39 18.96,66.6 42.71,127.49 70.37,180.89 32.32,62.37 70.15,114.82 112.12,154.9z"/>
    <path class="fil3" d="M9734.57 10080.85c-69.38,251.08 -267.19,448.91 -518.29,518.32 41.95,-40.08 79.77,-92.53 112.09,-154.87 27.66,-53.41 51.44,-114.32 70.4,-180.92 66.6,-18.96 127.48,-42.71 180.86,-70.37 62.39,-32.34 114.87,-70.19 154.94,-112.16z"/>
    <path class="fil3" d="M9760.75 9912.32l-0.02 0.81c-14.77,86.95 -91.62,166.45 -208.37,226.96 -41.04,21.27 -86.85,40.07 -136.55,56 19.63,-87.64 31.27,-183.37 33.22,-283.77l311.72 0z"/>
    <path class="fil3" d="M9760.73 9851.81l0.02 0.86 -311.72 0c-1.95,-100.4 -13.59,-196.12 -33.22,-283.81 49.7,15.95 95.51,34.77 136.58,56.04 116.74,60.51 193.57,139.99 208.34,226.91z"/>
    <path class="fil3" d="M9216.26 9165.8c251.1,69.38 448.93,267.22 518.31,518.29 -40.07,-41.97 -92.55,-79.77 -154.91,-112.08 -53.41,-27.69 -114.29,-51.47 -180.92,-70.43 -18.95,-66.6 -42.71,-127.46 -70.37,-180.86 -32.32,-62.37 -70.14,-114.85 -112.11,-154.92z"/>
    <path class="fil3" d="M8988.01 10625.35l-1.14 -0.05c-86.79,-14.88 -166.16,-91.69 -226.61,-208.32 -21.27,-41.04 -40.09,-86.86 -56.02,-136.54 87.67,19.61 183.39,31.28 283.77,33.2l0 311.71z"/>
    <path class="fil3" d="M9331.47 10280.44c-15.95,49.68 -34.74,95.52 -56.02,136.59 -60.44,116.58 -139.82,193.39 -226.63,208.27l-1.13 0.05 0 -311.71c100.39,-1.92 196.12,-13.59 283.78,-33.2z"/>
    <path class="fil3" d="M8988.01 10254.19c-108.32,-2.15 -210.71,-16.06 -302.52,-39.33 -23.26,-91.81 -37.18,-194.2 -39.33,-302.54l341.85 0 0 341.87z"/>
    <path class="fil3" d="M9389.55 9912.32c-2.15,108.34 -16.06,210.73 -39.33,302.54 -91.81,23.27 -194.22,37.18 -302.53,39.33l0 -341.87 341.86 0z"/>
    <path class="fil3" d="M8988.01 9852.67l-341.85 0c2.15,-108.34 16.07,-210.75 39.33,-302.56 91.81,-23.27 194.2,-37.18 302.52,-39.33l0 341.89z"/>
    <path class="fil3" d="M9350.25 9550.11c23.24,91.83 37.15,194.22 39.3,302.56l-341.86 0 0 -341.89c108.33,2.15 210.72,16.06 302.56,39.33z"/>
    <path class="fil3" d="M8988.01 9451.3c-100.38,1.95 -196.1,13.62 -283.77,33.22 15.93,-49.67 34.75,-95.49 56.02,-136.55 60.42,-116.56 139.78,-193.37 226.54,-208.3l1.21 -0.07 0 311.7z"/>
    <path class="fil3" d="M9047.69 9139.6l1.2 0.07c86.79,14.93 166.14,91.74 226.56,208.32 21.28,41.07 40.1,86.86 56.02,136.56 -87.66,-19.63 -183.39,-31.3 -283.78,-33.25l0 -311.7z"/>
   </g>
  </g>
 </g>
</svg>