<svg xmlns="http://www.w3.org/2000/svg" xmlns:xlink="http://www.w3.org/1999/xlink" xmlns:xodm="http://www.corel.com/coreldraw/odm/2003" xml:space="preserve" version="1.1" style="shape-rendering:geometricPrecision; text-rendering:geometricPrecision; image-rendering:optimizeQuality; fill-rule:evenodd; clip-rule:evenodd" viewBox="15133.85 5004.99 8062.16 3894.74">
 <defs>
  <style type="text/css">
   <![CDATA[
    .str0 {stroke:#393185;stroke-width:105.83;stroke-miterlimit:22.9256}
    .fil0 {fill:none}
    .fil1 {fill:#393185}
    .fil2 {fill:#393185;fill-rule:nonzero}
   ]]>
  </style>
 </defs>
 <g id="Слой_x0020_1">
  <metadata id="CorelCorpID_0Corel-Layer"/>
  <path class="fil0 str0" d="M17437.62 5091.94c-361.63,-177.84 -989.63,358.86 -1402.67,1198.76 -413.04,839.9 -454.71,1664.94 -93.08,1842.78 361.64,177.84 989.63,-358.86 1402.68,-1198.76 413.04,-839.9 454.71,-1664.94 93.07,-1842.78z"/>
  <path class="fil0 str0" d="M15620.76 6147.33c-103.06,264.29 283.29,684.03 862.93,937.51 579.65,253.48 1133.09,244.7 1236.15,-19.6 103.06,-264.3 -283.29,-684.04 -862.93,-937.51 -579.65,-253.48 -1133.09,-244.7 -1236.15,19.6z"/>
  <path class="fil0 str0" d="M15196.86 6927.99c95.45,355.68 842.46,500.28 1668.5,322.96 826.04,-177.31 1418.29,-609.39 1322.84,-965.07 -95.45,-355.67 -842.46,-500.27 -1668.5,-322.96 -826.04,177.31 -1418.29,609.39 -1322.84,965.07z"/>
  <path class="fil1" d="M16728.86 6384.88c126.03,0 228.2,100.69 228.2,224.9 0,124.21 -102.17,224.9 -228.2,224.9 -126.03,0 -228.2,-100.69 -228.2,-224.9 0,-124.21 102.17,-224.9 228.2,-224.9z"/>
  <path class="fil2" d="M20022.15 7291.93l0 -838.77 169.86 0 0 330.36 330.35 0 0 -330.36 169.86 0 0 838.77 -169.86 0 0 -366.67 -330.35 0 0 366.67 -169.86 0zm848.33 -838.77l158.15 0 0 558.4 339.72 -558.4 168.69 0 0 838.77 -158.15 0 0 -549.41 -339.72 549.41 -168.69 0 0 -838.77zm1341.12 838.77l0 -350.27 -34.36 0c-53.69,0 -91.38,8.01 -113.44,24.02 -22.06,15.81 -59.55,63.65 -112.85,143.11l-121.44 183.14 -202.47 0 102.31 -163.61c40.22,-65.02 72.44,-110.51 96.26,-136.48 24.01,-26.16 54.08,-49.59 90,-70.09 -77.9,-12.3 -134.13,-39.44 -168.69,-81.61 -34.56,-42.18 -51.93,-92.55 -51.93,-151.32 0,-51.15 12.88,-96.45 38.66,-135.89 25.77,-39.44 59.74,-65.99 101.91,-79.46 42.18,-13.47 105.24,-20.31 189.19,-20.31l356.71 0 0 838.77 -169.86 0zm0 -697.02l-132.18 0c-67.16,0 -111.29,1.56 -132.37,4.49 -21.09,3.13 -39.44,13.47 -54.67,31.05 -15.23,17.57 -22.84,40.41 -22.84,68.72 0,29.48 7.41,52.91 22.06,70.29 14.64,17.38 33.38,28.11 56.03,32.41 22.65,4.1 68.92,6.25 138.63,6.25l125.34 0 0 -213.21zm254.59 -141.75l190.76 0 195.24 434.23 167.13 -434.23 176.69 0 -283.68 637.47c-30.85,69.12 -62.29,121.64 -94.31,157.76 -32.02,36.12 -73.21,54.08 -123.98,54.08 -49.98,0 -89.03,-3.32 -117.14,-9.76l0 -126.13c24.01,1.57 45.68,2.35 65.01,2.35 39.05,0 67.17,-7.23 84.15,-21.48 16.79,-14.45 33.19,-45.49 48.62,-92.94l-308.49 -601.35z"/>
  <path class="fil2" d="M17267.28 8899.73l0 -1425.28 432.3 0 255.46 972.08 252.48 -972.08 433.29 0 0 1425.28 -266.74 0 -1 -1122.05 -281.01 1122.05 -277.36 0 -279.68 -1122.05 -0.99 1122.05 -266.75 0zm1666.16 -1425.28l268.73 0 0 948.86 577.28 -948.86 286.65 0 0 1425.28 -268.73 0 0 -933.6 -577.28 933.6 -286.65 0 0 -1425.28zm2272.95 1258.07l0 167.21 -282.67 0 0 -167.21c-227.93,-8.3 -388.5,-64.7 -482.39,-168.54 -93.89,-104.18 -140.67,-234.23 -140.67,-390.49 0,-164.56 49.1,-296.28 146.97,-395.81 98.2,-99.53 256.79,-153.61 476.09,-161.9l0 -141.33 282.67 0 0 141.33c226.6,8.29 386.84,64.03 481.4,167.21 94.55,102.85 141.66,233.57 141.66,391.49 0,156.93 -47.11,286.98 -141,390.49 -94.22,103.18 -254.8,159.25 -482.06,167.55zm0 -240.87c75.31,0 140.34,-12.6 194.75,-37.82 54.08,-25.21 92.56,-59.05 115.45,-101.85 22.9,-42.47 34.18,-104.84 34.18,-187.12 0,-205.37 -114.8,-308.21 -344.38,-308.21l0 635zm-282.67 0l0 -635c-121.76,0 -209.35,26.87 -263.42,80.95 -54.08,54.08 -80.96,135.69 -80.96,244.84 0,206.03 114.8,309.21 344.38,309.21zm1139.63 -1017.2l268.73 0 0 948.86 577.28 -948.86 286.65 0 0 1425.28 -268.73 0 0 -933.6 -577.28 933.6 -286.65 0 0 -1425.28z"/>
 </g>
</svg>